<svg width="60" height="60" viewBox="0 0 60 60" fill="none" xmlns="http://www.w3.org/2000/svg">
<path d="M19.9729 11.2576L38.2429 30.0001L19.9729 48.7426C19.6458 49.0775 19.4627 49.527 19.4627 49.9951C19.4627 50.4632 19.6458 50.9128 19.9729 51.2476C20.1318 51.4098 20.3214 51.5386 20.5307 51.6265C20.74 51.7145 20.9647 51.7598 21.1917 51.7598C21.4187 51.7598 21.6434 51.7145 21.8527 51.6265C22.0619 51.5386 22.2516 51.4098 22.4104 51.2476L41.8504 31.3089C42.1917 30.9587 42.3827 30.4891 42.3827 30.0001C42.3827 29.5112 42.1917 29.0415 41.8504 28.6914L22.4142 8.75264C22.2552 8.58935 22.0651 8.45957 21.8551 8.37095C21.6452 8.28233 21.4196 8.23668 21.1917 8.23668C20.9638 8.23668 20.7382 8.28233 20.5282 8.37095C20.3183 8.45957 20.1282 8.58935 19.9692 8.75264C19.6421 9.08751 19.459 9.53704 19.459 10.0051C19.459 10.4732 19.6421 10.9228 19.9692 11.2576H19.9729Z" fill="#BDA875"/>
</svg>
