<svg width="60" height="60" viewBox="0 0 60 60" fill="none" xmlns="http://www.w3.org/2000/svg">
<path d="M40.0271 11.2576L21.7571 30.0001L40.0271 48.7426C40.3542 49.0775 40.5373 49.527 40.5373 49.9951C40.5373 50.4632 40.3542 50.9128 40.0271 51.2476C39.8682 51.4098 39.6786 51.5386 39.4693 51.6265C39.26 51.7145 39.0353 51.7598 38.8083 51.7598C38.5813 51.7598 38.3566 51.7145 38.1473 51.6265C37.9381 51.5386 37.7484 51.4098 37.5896 51.2476L18.1496 31.3089C17.8083 30.9587 17.6173 30.4891 17.6173 30.0001C17.6173 29.5112 17.8083 29.0415 18.1496 28.6914L37.5858 8.75264C37.7448 8.58935 37.9349 8.45957 38.1449 8.37095C38.3548 8.28233 38.5804 8.23668 38.8083 8.23668C39.0362 8.23668 39.2618 8.28233 39.4718 8.37095C39.6817 8.45957 39.8718 8.58935 40.0308 8.75264C40.3579 9.08751 40.541 9.53704 40.541 10.0051C40.541 10.4732 40.3579 10.9228 40.0308 11.2576H40.0271Z" fill="#BDA875"/>
</svg>
