<svg width="277" height="110" viewBox="0 0 277 110" fill="none" xmlns="http://www.w3.org/2000/svg">
<path d="M269.74 73.0647C270.201 72.9668 270.635 72.813 271.041 72.6171C271.67 72.3094 272.244 71.8896 272.747 71.3301C273.251 70.7845 273.629 70.1829 273.894 69.5394C274.146 68.8959 274.272 68.1965 274.272 67.4271C274.272 65.8463 273.699 64.4895 272.579 63.3564L272.524 63.3004C271.964 62.7548 271.362 62.3491 270.719 62.0833C270.411 61.9574 270.075 61.8596 269.74 61.7896V73.0647ZM267.012 80.0732V60.1528C267.012 59.4814 267.557 58.9358 268.229 58.9358H268.523C269.684 58.9358 270.761 59.1456 271.768 59.5652C272.775 59.9849 273.699 60.6005 274.51 61.4259L274.524 61.4119C275.335 62.2372 275.951 63.1465 276.37 64.1677C276.79 65.1749 277 66.266 277 67.4271C277 68.5322 276.804 69.5675 276.426 70.5328C276.049 71.498 275.489 72.3792 274.734 73.1905C273.992 74.0019 273.139 74.6176 272.216 75.0792C271.432 75.4429 270.621 75.6806 269.74 75.8065V80.0732C269.74 80.7587 269.194 81.3043 268.523 81.3043H268.229C267.557 81.3043 267.012 80.7587 267.012 80.0732ZM248.784 69.6374L257.779 62.9786C257.457 62.7268 257.108 62.489 256.688 62.2792C256.282 62.0694 255.877 61.9154 255.457 61.8174C255.037 61.7195 254.59 61.6636 254.114 61.6636C253.317 61.6636 252.575 61.8035 251.904 62.0833C251.246 62.3631 250.617 62.7828 250.057 63.3564C249.484 63.9299 249.05 64.5454 248.784 65.2169C248.504 65.8883 248.364 66.6157 248.364 67.4131C248.364 68.2104 248.504 68.952 248.784 69.6094V69.6374ZM259.458 70.6026H259.863C260.535 70.6026 261.08 71.1482 261.08 71.8196C261.08 72.1414 260.969 72.4213 260.773 72.6311C260.437 73.0928 260.045 73.5123 259.598 73.876L259.514 73.946C259.066 74.3097 258.562 74.6314 258.017 74.9252C257.415 75.2469 256.786 75.4847 256.142 75.6386C255.485 75.7925 254.813 75.8625 254.114 75.8625C252.953 75.8625 251.862 75.6527 250.854 75.2471C249.847 74.8274 248.938 74.2118 248.113 73.4004C247.287 72.589 246.672 71.6798 246.252 70.6726C245.832 69.6654 245.637 68.5742 245.637 67.4131C245.637 66.252 245.832 65.1749 246.252 64.1537C246.672 63.1465 247.287 62.2372 248.113 61.4119C248.924 60.6005 249.833 59.9849 250.854 59.5652C251.862 59.1456 252.953 58.9358 254.114 58.9358C254.827 58.9358 255.513 59.0196 256.184 59.1875C256.856 59.3554 257.513 59.6212 258.129 59.957C258.73 60.2927 259.276 60.6703 259.752 61.104C260.255 61.5377 260.675 62.0133 261.038 62.5449C261.416 63.1045 261.276 63.86 260.717 64.2377L250.463 71.8476C250.91 72.2393 251.4 72.5331 251.904 72.743C252.575 73.0227 253.317 73.1627 254.114 73.1627C254.562 73.1627 254.981 73.1206 255.387 73.0227C255.807 72.9248 256.212 72.785 256.604 72.5891C257.01 72.3933 257.359 72.1835 257.667 71.9177C257.975 71.6798 258.255 71.3999 258.479 71.0922C258.73 70.7704 259.094 70.6026 259.458 70.6026ZM236.236 75.6108H235.942C235.271 75.6108 234.725 75.0652 234.725 74.3797V61.9575H232.809C232.137 61.9575 231.592 61.3979 231.592 60.7264V60.4465C231.592 59.7611 232.137 59.2155 232.809 59.2155H239.356C240.041 59.2155 240.587 59.7611 240.587 60.4465V60.7264C240.587 61.3979 240.041 61.9575 239.356 61.9575H237.453V74.3797C237.453 75.0652 236.907 75.6108 236.236 75.6108ZM226.821 74.3797V74.6735C226.821 75.3449 226.276 75.8905 225.604 75.8905H225.324C225.283 75.8905 225.241 75.8905 225.199 75.8905C224.065 75.8625 223.03 75.6527 222.065 75.2471C221.058 74.8414 220.149 74.2118 219.323 73.4004C218.498 72.589 217.882 71.6798 217.463 70.6726C217.043 69.6654 216.847 68.5742 216.847 67.4131C216.847 66.252 217.043 65.1749 217.463 64.1537C217.882 63.1465 218.498 62.2372 219.323 61.4119C220.135 60.6005 221.058 59.9849 222.065 59.5652C223.072 59.1456 224.163 58.9358 225.324 58.9358H225.604C226.276 58.9358 226.821 59.4814 226.821 60.1528V60.4465C226.821 61.118 226.276 61.6636 225.604 61.6636H225.324C224.527 61.6636 223.786 61.8035 223.114 62.0833C222.457 62.3631 221.827 62.7828 221.268 63.3564C220.694 63.9299 220.26 64.5454 219.995 65.2169C219.715 65.8883 219.575 66.6157 219.575 67.4131C219.575 68.2104 219.715 68.952 219.995 69.6094C220.26 70.2809 220.694 70.8964 221.268 71.4699C221.827 72.0435 222.457 72.4632 223.114 72.743C223.786 73.0227 224.527 73.1627 225.324 73.1627H225.604C226.276 73.1627 226.821 73.7083 226.821 74.3797ZM208.118 73.6383C207.782 73.946 207.419 74.2398 207.013 74.4916C206.327 74.9532 205.586 75.289 204.803 75.5268C204.033 75.7506 203.222 75.8625 202.368 75.8625C201.221 75.8625 200.13 75.6527 199.123 75.2471C198.116 74.8274 197.207 74.2118 196.381 73.4004C195.556 72.589 194.94 71.6798 194.521 70.6726C194.101 69.6654 193.891 68.5742 193.891 67.4131C193.891 66.252 194.101 65.1749 194.521 64.1537C194.94 63.1465 195.556 62.2372 196.367 61.4119C197.193 60.6005 198.102 59.9849 199.123 59.5652C200.13 59.1456 201.221 58.9358 202.368 58.9358C203.292 58.9358 204.173 59.0756 205.012 59.3554C205.852 59.6212 206.649 60.0408 207.405 60.6004C207.656 60.7823 207.894 60.9782 208.118 61.188V60.4465C208.118 59.7611 208.678 59.2155 209.349 59.2155H209.629C210.3 59.2155 210.86 59.7611 210.86 60.4465V74.3797C210.86 75.0652 210.3 75.6108 209.629 75.6108H209.349C208.678 75.6108 208.118 75.0652 208.118 74.3797V73.6383ZM202.368 61.6636C201.571 61.6636 200.844 61.8035 200.172 62.0833C199.515 62.3631 198.885 62.7828 198.312 63.3564C197.752 63.9299 197.318 64.5454 197.039 65.2169C196.773 65.8883 196.633 66.6157 196.633 67.4131C196.633 68.2104 196.773 68.952 197.039 69.6094C197.318 70.2809 197.752 70.8964 198.312 71.4699C198.885 72.0435 199.515 72.4632 200.172 72.743C200.844 73.0227 201.571 73.1627 202.368 73.1627C203.544 73.1627 204.579 72.8549 205.502 72.2534C205.978 71.9456 206.397 71.5959 206.733 71.2042C207.083 70.8125 207.363 70.3648 207.586 69.8891C207.712 69.6373 207.894 69.4415 208.118 69.3296V67.4131C208.118 66.6157 207.978 65.8883 207.712 65.2169C207.433 64.5454 206.999 63.9299 206.439 63.3564C205.866 62.7828 205.236 62.3631 204.579 62.0833C203.907 61.8035 203.18 61.6636 202.368 61.6636Z" fill="#1F6C66"/>
<path d="M178.07 69.2596L173.397 60.4885V74.3797C173.397 75.0651 172.852 75.6107 172.18 75.6107H171.886C171.215 75.6107 170.669 75.0651 170.669 74.3797V54.4731C170.669 53.7876 171.215 53.2421 171.886 53.2421C172.39 53.2421 172.838 53.5499 173.02 53.9975L179.147 65.4965L185.33 53.8997C185.638 53.2982 186.379 53.0743 186.981 53.3961C187.386 53.6059 187.624 54.0255 187.624 54.4731V74.3797C187.624 75.0651 187.079 75.6107 186.407 75.6107H186.113C185.442 75.6107 184.896 75.0651 184.896 74.3797V60.4885L180.224 69.2736C179.902 69.8612 179.161 70.085 178.573 69.7772C178.349 69.6513 178.182 69.4695 178.07 69.2596Z" fill="#1F6C66"/>
<path d="M161.954 74.3797V74.6735C161.954 75.3449 161.395 75.8905 160.723 75.8905H160.443C160.401 75.8905 160.359 75.8905 160.317 75.8905C159.184 75.8625 158.149 75.6527 157.184 75.2471C156.177 74.8414 155.267 74.2118 154.442 73.4004C153.617 72.589 153.001 71.6798 152.582 70.6726C152.176 69.6654 151.966 68.5742 151.966 67.4131C151.966 66.252 152.176 65.1749 152.582 64.1537C153.001 63.1465 153.617 62.2372 154.442 61.4119C155.253 60.6005 156.177 59.9849 157.184 59.5652C158.191 59.1456 159.282 58.9358 160.443 58.9358H160.723C161.395 58.9358 161.954 59.4814 161.954 60.1528V60.4465C161.954 61.118 161.395 61.6636 160.723 61.6636H160.443C159.646 61.6636 158.905 61.8035 158.247 62.0833C157.576 62.3631 156.96 62.7828 156.387 63.3564C155.813 63.9299 155.393 64.5454 155.114 65.2169C154.834 65.8883 154.694 66.6157 154.694 67.4131C154.694 68.2104 154.834 68.952 155.114 69.6094C155.393 70.2809 155.813 70.8964 156.387 71.4699C156.96 72.0435 157.576 72.4632 158.247 72.743C158.905 73.0227 159.646 73.1627 160.443 73.1627H160.723C161.395 73.1627 161.954 73.7083 161.954 74.3797ZM146.832 74.3797V74.6735C146.832 75.3449 146.286 75.8905 145.601 75.8905H145.321C145.279 75.8905 145.237 75.8905 145.195 75.8905C144.062 75.8625 143.027 75.6527 142.062 75.2471C141.055 74.8414 140.145 74.2118 139.32 73.4004C138.509 72.589 137.879 71.6798 137.473 70.6726C137.054 69.6654 136.844 68.5742 136.844 67.4131C136.844 66.252 137.054 65.1749 137.473 64.1537C137.879 63.1465 138.509 62.2372 139.32 61.4119C140.131 60.6005 141.055 59.9849 142.062 59.5652C143.069 59.1456 144.16 58.9358 145.321 58.9358H145.601C146.286 58.9358 146.832 59.4814 146.832 60.1528V60.4465C146.832 61.118 146.286 61.6636 145.601 61.6636H145.321C144.524 61.6636 143.782 61.8035 143.125 62.0833C142.453 62.3631 141.838 62.7828 141.264 63.3564C140.691 63.9299 140.271 64.5454 139.991 65.2169C139.712 65.8883 139.572 66.6157 139.572 67.4131C139.572 68.2104 139.712 68.952 139.991 69.6094C140.271 70.2809 140.691 70.8964 141.264 71.4699C141.838 72.0435 142.453 72.4632 143.125 72.743C143.782 73.0227 144.524 73.1627 145.321 73.1627H145.601C146.286 73.1627 146.832 73.7083 146.832 74.3797ZM128.129 73.6383C127.779 73.946 127.415 74.2398 127.01 74.4916C126.324 74.9532 125.583 75.289 124.813 75.5268C124.03 75.7506 123.219 75.8625 122.379 75.8625C121.218 75.8625 120.127 75.6527 119.12 75.2471C118.113 74.8274 117.203 74.2118 116.378 73.4004C115.553 72.589 114.937 71.6798 114.517 70.6726C114.112 69.6654 113.902 68.5742 113.902 67.4131C113.902 66.252 114.112 65.1749 114.517 64.1537C114.937 63.1465 115.553 62.2372 116.378 61.4119C117.189 60.6005 118.113 59.9849 119.12 59.5652C120.127 59.1456 121.218 58.9358 122.379 58.9358C123.288 58.9358 124.17 59.0756 125.023 59.3554C125.848 59.6212 126.646 60.0408 127.401 60.6004C127.653 60.7823 127.891 60.9782 128.129 61.188V60.4465C128.129 59.7611 128.674 59.2155 129.346 59.2155H129.626C130.311 59.2155 130.857 59.7611 130.857 60.4465V74.3797C130.857 75.0652 130.311 75.6108 129.626 75.6108H129.346C128.674 75.6108 128.129 75.0652 128.129 74.3797V73.6383ZM122.379 61.6636C121.582 61.6636 120.84 61.8035 120.183 62.0833C119.511 62.3631 118.882 62.7828 118.322 63.3564C117.749 63.9299 117.315 64.5454 117.049 65.2169C116.77 65.8883 116.63 66.6157 116.63 67.4131C116.63 68.2104 116.77 68.952 117.049 69.6094C117.315 70.2809 117.749 70.8964 118.322 71.4699C118.882 72.0435 119.511 72.4632 120.183 72.743C120.84 73.0227 121.582 73.1627 122.379 73.1627C123.54 73.1627 124.575 72.8549 125.499 72.2534C125.988 71.9456 126.394 71.5959 126.73 71.2042C127.08 70.8125 127.359 70.3648 127.583 69.8891C127.709 69.6373 127.891 69.4415 128.129 69.3296V67.4131C128.129 66.6157 127.989 65.8883 127.709 65.2169C127.429 64.5454 127.01 63.9299 126.436 63.3564C125.862 62.7828 125.247 62.3631 124.575 62.0833C123.904 61.8035 123.177 61.6636 122.379 61.6636Z" fill="#1F6C66"/>
<path d="M98.0662 69.2596L93.3939 60.4885V74.3797C93.3939 75.0651 92.8483 75.6107 92.1769 75.6107H91.8831C91.2116 75.6107 90.666 75.0651 90.666 74.3797V54.4731C90.666 53.7876 91.2116 53.2421 91.8831 53.2421C92.4007 53.2421 92.8343 53.5499 93.0162 53.9975L99.1434 65.4965L105.327 53.8997C105.648 53.2982 106.376 53.0743 106.977 53.3961C107.383 53.6059 107.621 54.0255 107.621 54.4731V74.3797C107.621 75.0651 107.075 75.6107 106.404 75.6107H106.124C105.438 75.6107 104.893 75.0651 104.893 74.3797V60.4885L100.221 69.2736C99.8988 69.8612 99.1713 70.085 98.5698 69.7772C98.346 69.6513 98.1781 69.4695 98.0662 69.2596Z" fill="#1F6C66"/>
<path fill-rule="evenodd" clip-rule="evenodd" d="M33.0032 0C31.8281 0 30.8488 0.951269 30.8488 2.11236V77.1636C30.8488 78.3247 31.8281 79.276 33.0032 79.276C34.1922 79.276 35.1715 78.3247 35.1715 77.1636V2.11236C35.1715 0.951269 34.1922 0 33.0032 0ZM78.4535 48.8498C75.1521 49.1016 72.1725 50.5145 69.9622 52.6828C67.5141 55.0749 66.0033 58.3762 66.0033 61.9994V64.5455V72.2674V77.6812C66.0033 95.4333 51.1609 109.94 33.0032 109.94C14.8594 109.94 0.0170079 95.4333 0.0170079 77.6812V33.7696C-0.136872 32.6225 0.772408 31.6012 1.97547 31.6012C3.16453 31.6012 4.0738 32.6225 3.91992 33.7696V77.6812C3.91992 93.321 17.0137 106.135 33.0032 106.135C49.0066 106.135 62.1004 93.321 62.1004 77.6812V72.2674V64.3496V61.9994C62.1004 57.327 64.0588 53.0744 67.2064 49.9968C70.1301 47.1431 74.075 45.2825 78.4535 45.0307C79.5167 45.0307 80.398 45.884 80.398 46.9471C80.398 47.9963 79.5167 48.8498 78.4535 48.8498ZM46.5026 16.9267V20.7317V25.6V77.7791C46.5026 81.4022 44.9778 84.7037 42.5297 87.0958C40.0816 89.4879 36.7102 90.9708 33.0032 90.9708C29.31 90.9708 25.9247 89.4879 23.4906 87.0958C21.0425 84.7037 19.5177 81.4022 19.5177 77.7791V25.6V20.7317V16.9267C19.5177 15.8775 18.6504 15.0242 17.5732 15.0242C16.4961 15.0242 15.6288 15.8775 15.6288 16.9267V77.7791C15.6288 82.4514 17.5872 86.704 20.7348 89.7816C23.8823 92.8732 28.2329 94.7758 33.0032 94.7758C37.7874 94.7758 42.138 92.8732 45.2855 89.7816C48.4331 86.704 50.3915 82.4514 50.3915 77.7791V16.9267C50.3915 15.8775 49.5242 15.0242 48.4471 15.0242C47.3699 15.0242 46.5026 15.8775 46.5026 16.9267Z" fill="#BDA875"/>
</svg>
