<svg width="21" height="32" viewBox="0 0 21 32" fill="none" xmlns="http://www.w3.org/2000/svg">
<path d="M19.75 16C19.75 19.0521 15.5527 21.5263 10.375 21.5263C5.19733 21.5263 1 19.0521 1 16M19.75 16V25.4737C19.75 28.5258 15.5527 31 10.375 31C5.19733 31 1 28.5258 1 25.4737V16M19.75 16V6.52632M1 16V6.52632M19.75 6.52632C19.75 9.57842 15.5527 12.0526 10.375 12.0526C5.19733 12.0526 1 9.57842 1 6.52632M19.75 6.52632C19.75 3.47422 15.5527 1 10.375 1C5.19733 1 1 3.47422 1 6.52632" stroke="black" stroke-width="2"/>
</svg>
