<svg width="32" height="32" viewBox="0 0 32 32" fill="none" xmlns="http://www.w3.org/2000/svg">
<path d="M2.36487 30C1.81259 30 1.36487 30.4477 1.36487 31C1.36487 31.5523 1.81259 32 2.36487 32V30ZM29.6351 32C30.1874 32 30.6351 31.5523 30.6351 31C30.6351 30.4477 30.1874 30 29.6351 30V32ZM26.0901 20.3333C26.0901 19.781 25.6424 19.3333 25.0901 19.3333C24.5378 19.3333 24.0901 19.781 24.0901 20.3333H26.0901ZM7.90991 20.3333C7.90991 19.781 7.4622 19.3333 6.90991 19.3333C6.35763 19.3333 5.90991 19.781 5.90991 20.3333H7.90991ZM28.882 3.3049L27.9325 3.61875V3.61875L28.882 3.3049ZM30.5 8.19978L29.5505 8.51362L29.5505 8.51362L30.5 8.19978ZM3.118 3.3049L2.16853 2.99105V2.99105L3.118 3.3049ZM1.50001 8.19978L0.550537 7.88593H0.550537L1.50001 8.19978ZM7.90991 10.1667C7.90991 9.61438 7.4622 9.16667 6.90991 9.16667C6.35763 9.16667 5.90991 9.61438 5.90991 10.1667H7.90991ZM1.3413 12.1693L2.22127 11.6943L1.3413 12.1693ZM13.97 10.1667C13.97 9.61438 13.5223 9.16667 12.97 9.16667C12.4177 9.16667 11.97 9.61438 11.97 10.1667H13.97ZM20.03 10.1667C20.03 9.61438 19.5823 9.16667 19.03 9.16667C18.4777 9.16667 18.03 9.61438 18.03 10.1667H20.03ZM26.0901 10.1667C26.0901 9.61438 25.6424 9.16667 25.0901 9.16667C24.5378 9.16667 24.0901 9.61438 24.0901 10.1667H26.0901ZM30.6587 12.1693L31.5387 12.6443V12.6443L30.6587 12.1693ZM2.36487 32H6.90991V30H2.36487V32ZM6.90991 32H25.0901V30H6.90991V32ZM25.0901 32H29.6351V30H25.0901V32ZM26.0901 31V20.3333H24.0901V31H26.0901ZM7.90991 31V20.3333H5.90991V31H7.90991ZM5.93131 2H26.0687V0H5.93131V2ZM27.9325 3.61875L29.5505 8.51362L31.4495 7.88593L29.8315 2.99105L27.9325 3.61875ZM2.16853 2.99105L0.550537 7.88593L2.44948 8.51362L4.06748 3.61875L2.16853 2.99105ZM26.0687 2C26.7809 2 27.5752 2.53764 27.9325 3.61875L29.8315 2.99105C29.2685 1.288 27.8345 0 26.0687 0V2ZM5.93131 0C4.1655 0 2.73147 1.288 2.16853 2.99105L4.06748 3.61875C4.42484 2.53764 5.21915 2 5.93131 2V0ZM5.90991 10.1667C5.90991 11.8263 4.83105 12.8333 3.87989 12.8333V14.8333C6.2756 14.8333 7.90991 12.5571 7.90991 10.1667H5.90991ZM3.87989 12.8333C3.26206 12.8333 2.6277 12.4472 2.22127 11.6943L0.461328 12.6443C1.13661 13.8953 2.37219 14.8333 3.87989 14.8333V12.8333ZM11.97 10.1667C11.97 11.8263 10.8911 12.8333 9.93994 12.8333V14.8333C12.3357 14.8333 13.97 12.5571 13.97 10.1667H11.97ZM9.93994 12.8333C8.98878 12.8333 7.90991 11.8263 7.90991 10.1667H5.90991C5.90991 12.5571 7.54423 14.8333 9.93994 14.8333V12.8333ZM18.03 10.1667C18.03 11.8263 16.9512 12.8333 16 12.8333V14.8333C18.3957 14.8333 20.03 12.5571 20.03 10.1667H18.03ZM16 12.8333C15.0488 12.8333 13.97 11.8263 13.97 10.1667H11.97C11.97 12.5571 13.6043 14.8333 16 14.8333V12.8333ZM24.0901 10.1667C24.0901 11.8263 23.0112 12.8333 22.0601 12.8333V14.8333C24.4558 14.8333 26.0901 12.5571 26.0901 10.1667H24.0901ZM22.0601 12.8333C21.1089 12.8333 20.03 11.8263 20.03 10.1667H18.03C18.03 12.5571 19.6643 14.8333 22.0601 14.8333V12.8333ZM29.7787 11.6943C29.3723 12.4472 28.7379 12.8333 28.1201 12.8333V14.8333C29.6278 14.8333 30.8634 13.8953 31.5387 12.6443L29.7787 11.6943ZM28.1201 12.8333C27.169 12.8333 26.0901 11.8263 26.0901 10.1667H24.0901C24.0901 12.5571 25.7244 14.8333 28.1201 14.8333V12.8333ZM0.550537 7.88593C0.329473 8.55471 0.102848 9.33992 0.026927 10.1377C-0.0493261 10.939 0.0191736 11.8253 0.461328 12.6443L2.22127 11.6943C2.03098 11.3418 1.96409 10.8929 2.01793 10.3272C2.07211 9.75792 2.24106 9.14417 2.44948 8.51362L0.550537 7.88593ZM29.5505 8.51362C29.7589 9.14417 29.9279 9.75792 29.9821 10.3272C30.0359 10.8929 29.969 11.3418 29.7787 11.6943L31.5387 12.6443C31.9808 11.8252 32.0493 10.939 31.9731 10.1377C31.8972 9.33992 31.6705 8.55471 31.4495 7.88593L29.5505 8.51362Z" fill="black"/>
</svg>
