<svg width="32" height="31" viewBox="0 0 32 31" fill="none" xmlns="http://www.w3.org/2000/svg">
<path d="M6.71861 5.21877H27.5674C29.7739 5.21877 31.4068 7.74262 30.9106 10.3862L29.0631 20.23C28.7038 22.1441 27.3175 23.5001 25.7198 23.5001H12.8793C11.2816 23.5001 9.89528 22.1441 9.53602 20.23L6.71861 5.21877ZM6.71861 5.21877L6.35693 3.88468C5.8899 2.16198 4.57872 1 3.10184 1H1M26 10H22.25" stroke="black" stroke-width="2" stroke-linecap="round"/>
<path d="M14.8483 28.8572C14.8483 30.0407 14.0734 31.0001 13.1175 31.0001C12.1616 31.0001 11.3867 30.0407 11.3867 28.8572C11.3867 27.6737 12.1616 26.7144 13.1175 26.7144C14.0734 26.7144 14.8483 27.6737 14.8483 28.8572Z" fill="black"/>
<path d="M26.3867 28.8572C26.3867 30.0407 25.6118 31.0001 24.6559 31.0001C23.7001 31.0001 22.9252 30.0407 22.9252 28.8572C22.9252 27.6737 23.7001 26.7144 24.6559 26.7144C25.6118 26.7144 26.3867 27.6737 26.3867 28.8572Z" fill="black"/>
</svg>
