<svg width="12" height="12" viewBox="0 0 12 12" fill="none" xmlns="http://www.w3.org/2000/svg">
<path fill-rule="evenodd" clip-rule="evenodd" d="M0.884763 0.0215119C0.468801 0.0914656 0.0936196 0.475249 0.0237067 0.902332C-0.00692566 1.08934 -0.00692566 10.9077 0.0237067 11.0947C0.0954477 11.533 0.467652 11.9053 0.905809 11.977C1.09277 12.0077 10.9087 12.0077 11.0957 11.977C11.5338 11.9053 11.906 11.533 11.9778 11.0947C12.0084 10.9077 12.0084 1.08934 11.9778 0.902332C11.906 0.464067 11.5338 0.0917703 11.0957 0.0200116C10.9269 -0.00762761 1.04941 -0.00617415 0.884763 0.0215119ZM9.55202 3.03482C9.59488 3.05517 9.73096 3.17592 9.85438 3.30314L10.0788 3.53448V3.65833V3.78218L7.68235 6.18182C6.36429 7.50163 5.24371 8.60947 5.19215 8.64372C5.11031 8.69808 5.07459 8.70598 4.91091 8.70608C4.75817 8.70615 4.7082 8.69663 4.64138 8.65464C4.59626 8.62628 3.96611 8.00875 3.24101 7.28234L1.92268 5.96157V5.85462C1.92268 5.77384 1.93908 5.72531 1.9898 5.65625C2.09044 5.51918 2.39925 5.22968 2.47593 5.20052C2.6421 5.13732 2.62963 5.12698 3.80967 6.3048L4.91152 7.40457L7.07889 5.23657C8.27092 4.0442 9.27799 3.05291 9.31683 3.03374C9.40748 2.98899 9.4559 2.9892 9.55202 3.03482Z" fill="#AEAEAF"/>
</svg>
