<svg width="16" height="14" viewBox="0 0 16 14" fill="none" xmlns="http://www.w3.org/2000/svg">
<path fill-rule="evenodd" clip-rule="evenodd" d="M13.6 0.600098C14.9255 0.600098 16 1.67461 16 3.0001V11.0001C16 12.3256 14.9255 13.4001 13.6 13.4001H2.4C1.07452 13.4001 0 12.3256 0 11.0001V3.0001C0 1.67461 1.07452 0.600098 2.4 0.600098H13.6ZM14.4 3.2625L8.5268 8.40216C8.25032 8.64408 7.84885 8.66424 7.55153 8.46264L7.4732 8.40216L1.6 3.2633V11.0001C1.6 11.4419 1.95817 11.8001 2.4 11.8001H13.6C14.0418 11.8001 14.4 11.4419 14.4 11.0001V3.2625ZM13.184 2.2001H2.8144L8 6.73708L13.184 2.2001Z" fill="#B1B1B1"/>
</svg>
