<svg width="16" height="16" viewBox="0 0 16 16" fill="none" xmlns="http://www.w3.org/2000/svg">
<path fill-rule="evenodd" clip-rule="evenodd" d="M7.56937 2.17168e-07C6.57982 -0.000302848 5.61623 0.316605 4.82003 0.90421C4.02384 1.49182 3.43696 2.31917 3.14555 3.26484C2.85414 4.21051 2.87354 5.22469 3.20091 6.15852C3.52827 7.09235 4.14636 7.89666 4.96445 8.45338C3.54461 8.97414 2.3131 9.90789 1.42842 11.1345C0.543729 12.361 0.0463484 13.8243 0.000284229 15.3359C-0.00473662 15.5033 0.0569324 15.6658 0.171725 15.7877C0.286517 15.9095 0.445029 15.9808 0.612391 15.9859C0.779752 15.9909 0.942254 15.9292 1.06415 15.8144C1.18604 15.6996 1.25734 15.5411 1.26236 15.3738C1.31246 13.7343 1.99896 12.1787 3.17636 11.0368C4.35377 9.8948 5.92955 9.25615 7.56979 9.25615C9.21003 9.25615 10.7858 9.8948 11.9632 11.0368C13.1406 12.1787 13.8271 13.7343 13.8772 15.3738C13.8779 15.4578 13.8953 15.5408 13.9284 15.618C13.9616 15.6952 14.0099 15.765 14.0704 15.8233C14.1309 15.8816 14.2024 15.9273 14.2808 15.9576C14.3591 15.9879 14.4428 16.0022 14.5268 15.9997C14.6107 15.9973 14.6934 15.978 14.7699 15.9432C14.8463 15.9084 14.9151 15.8586 14.972 15.7969C15.029 15.7351 15.0731 15.6626 15.1017 15.5836C15.1302 15.5046 15.1427 15.4207 15.1385 15.3367C15.0926 13.825 14.5953 12.3615 13.7106 11.1348C12.8259 9.90807 11.5943 8.9742 10.1743 8.45338C10.9924 7.89666 11.6105 7.09235 11.9378 6.15852C12.2652 5.22469 12.2846 4.21051 11.9932 3.26484C11.7018 2.31917 11.1149 1.49182 10.3187 0.90421C9.52251 0.316605 8.55892 -0.000302848 7.56937 2.17168e-07ZM4.20384 4.62761C4.20384 3.73502 4.55842 2.87898 5.18958 2.24782C5.82074 1.61666 6.67678 1.26208 7.56937 1.26208C8.46197 1.26208 9.318 1.61666 9.94916 2.24782C10.5803 2.87898 10.9349 3.73502 10.9349 4.62761C10.9349 5.52021 10.5803 6.37624 9.94916 7.0074C9.318 7.63856 8.46197 7.99314 7.56937 7.99314C6.67678 7.99314 5.82074 7.63856 5.18958 7.0074C4.55842 6.37624 4.20384 5.52021 4.20384 4.62761Z" fill="#B1B1B1"/>
</svg>
