<svg width="16" height="16" viewBox="0 0 16 16" fill="none" xmlns="http://www.w3.org/2000/svg">
<path fill-rule="evenodd" clip-rule="evenodd" d="M7.18346 3.40325C7.65223 3.92288 7.5036 4.51156 7.08912 5.07012C6.99085 5.20255 6.87758 5.33304 6.74077 5.47682C6.67511 5.54583 6.6239 5.59774 6.5168 5.70494C6.27357 5.94842 6.0691 6.153 5.90338 6.3187C5.82302 6.39905 6.37168 7.49543 7.43648 8.56127C8.50069 9.62653 9.59701 10.1756 9.67775 10.0948L10.2907 9.48145C10.6283 9.14355 10.8071 8.98052 11.0527 8.81936C11.5634 8.48431 12.1205 8.39327 12.5903 8.81335C14.1242 9.91057 14.9922 10.5839 15.4174 11.0257C16.2469 11.8876 16.1382 13.2142 15.4221 13.971C15.1739 14.2334 14.859 14.5484 14.4872 14.9069C12.238 17.1574 7.49103 15.7878 3.85302 12.1462C0.214183 8.5038 -1.15464 3.75642 1.08988 1.51069C1.49284 1.1014 1.62569 0.968612 2.01814 0.581922C2.7488 -0.138024 4.13661 -0.250752 4.98026 0.582635C5.42402 1.021 6.1315 1.93127 7.18346 3.40325ZM11.4216 10.6127L10.8085 11.2262C9.76633 12.2689 7.99149 11.3801 6.30548 9.6924C4.61832 8.00358 3.73048 6.2294 4.77299 5.18697C4.93849 5.02149 5.14276 4.8171 5.38581 4.57382C5.48387 4.47566 5.52873 4.43019 5.58257 4.3736C5.65593 4.2965 5.71621 4.22879 5.76447 4.16887C4.83218 2.8702 4.19842 2.05871 3.85677 1.72122C3.68032 1.54692 3.28523 1.57901 3.14019 1.72193C2.75335 2.1031 2.62619 2.23019 2.22486 2.63779C0.781413 4.08204 1.88642 7.91446 4.98401 11.0151C8.08063 14.1147 11.9125 15.2203 13.3669 13.7652C13.733 13.4122 14.0312 13.1137 14.2608 12.871C14.4267 12.6957 14.4564 12.3339 14.2656 12.1356C13.9477 11.8053 13.1695 11.1985 11.8257 10.2336C11.7278 10.3124 11.6074 10.4267 11.4216 10.6127Z" fill="#B1B1B1"/>
</svg>
