<svg width="19" height="23" viewBox="0 0 19 23" fill="none" xmlns="http://www.w3.org/2000/svg">
<path d="M2.23107 6.93295L8.44979 0.253882C8.76196 -0.0832774 9.30415 -0.0832775 9.62453 0.245856L15.8433 6.9249C16.3033 7.41459 15.9419 8.20931 15.26 8.20931H12.2698C11.9822 8.20931 11.744 8.44212 11.744 8.72307V12.9902C11.744 13.52 11.3086 13.9455 10.7664 13.9455H7.29969C6.76572 13.9455 6.32211 13.52 6.33032 12.9982V8.73112C6.33032 8.45017 6.09209 8.21736 5.80457 8.21736H2.81434C2.13249 8.21736 1.77104 7.43061 2.23107 6.93295Z" fill="url(#paint0_linear_272_1369)"/>
<path d="M6.11194 15.4584H0.821498C0.369674 15.4584 0 15.8281 0 16.2799C0 16.7317 0.369674 17.1014 0.821498 17.1014H2.64522V22.17C2.64522 22.6219 3.0149 22.9915 3.46672 22.9915C3.91855 22.9915 4.28822 22.6219 4.28822 22.17V17.1014H6.11194C6.56377 17.1014 6.93344 16.7317 6.93344 16.2799C6.93344 15.8198 6.56377 15.4584 6.11194 15.4584Z" fill="url(#paint1_linear_272_1369)"/>
<path d="M13.8254 15.4668H16.101C17.3414 15.4668 18.3519 16.4772 18.3519 17.7177C18.3519 18.9581 17.3414 19.9686 16.101 19.9686H14.6469V22.1784C14.6469 22.6302 14.2772 22.9999 13.8254 22.9999C13.3736 22.9999 13.0039 22.6302 13.0039 22.1784V16.2883C13.0039 15.8364 13.3736 15.4668 13.8254 15.4668ZM14.6469 18.3256H16.101C16.4378 18.3256 16.7089 18.0545 16.7089 17.7177C16.7089 17.3809 16.4378 17.1098 16.101 17.1098H14.6469V18.3256Z" fill="url(#paint2_linear_272_1369)"/>
<path d="M6.93359 20.42C6.93359 21.8412 8.0919 22.9995 9.52131 22.9995C10.9425 22.9995 12.109 21.8412 12.109 20.42V18.0541C12.109 16.6329 10.9507 15.4746 9.52131 15.4746C8.0919 15.4746 6.93359 16.6329 6.93359 18.0541V20.42ZM8.57659 18.0541C8.57659 17.5284 9.00377 17.1094 9.52131 17.1094C10.0389 17.1094 10.466 17.5284 10.466 18.0541V20.42C10.466 20.9458 10.0389 21.3647 9.52131 21.3647C9.00377 21.3647 8.57659 20.9376 8.57659 20.42V18.0541Z" fill="url(#paint3_linear_272_1369)"/>
<defs>
<linearGradient id="paint0_linear_272_1369" x1="9.03717" y1="2.07804e-07" x2="15.9864" y2="13.9767" gradientUnits="userSpaceOnUse">
<stop stop-color="#D8CDBB"/>
<stop offset="1" stop-color="#BBA774"/>
</linearGradient>
<linearGradient id="paint1_linear_272_1369" x1="3.46672" y1="15.4584" x2="7.41651" y2="22.7291" gradientUnits="userSpaceOnUse">
<stop stop-color="#D8CDBB"/>
<stop offset="1" stop-color="#BBA774"/>
</linearGradient>
<linearGradient id="paint2_linear_272_1369" x1="15.6779" y1="15.4668" x2="20.1109" y2="21.761" gradientUnits="userSpaceOnUse">
<stop stop-color="#D8CDBB"/>
<stop offset="1" stop-color="#BBA774"/>
</linearGradient>
<linearGradient id="paint3_linear_272_1369" x1="9.52131" y1="15.4746" x2="13.995" y2="21.6284" gradientUnits="userSpaceOnUse">
<stop stop-color="#D8CDBB"/>
<stop offset="1" stop-color="#BBA774"/>
</linearGradient>
</defs>
</svg>
