<svg width="745" height="745" viewBox="0 0 745 745" fill="none" xmlns="http://www.w3.org/2000/svg">
<g filter="url(#filter0_dddddd_272_1107)">
<mask id="path-1-outside-1_272_1107" maskUnits="userSpaceOnUse" x="242.861" y="91.9996" width="139.618" height="135.889" fill="black">
<rect fill="white" x="242.861" y="91.9996" width="139.618" height="135.889"/>
<path d="M252.554 149.204C270.665 131.596 292.451 118.21 316.356 110.001L347.797 200.967C337.278 204.579 327.693 210.469 319.724 218.216L252.554 149.204Z"/>
</mask>
<path d="M252.554 149.204C270.665 131.596 292.451 118.21 316.356 110.001L347.797 200.967C337.278 204.579 327.693 210.469 319.724 218.216L252.554 149.204Z" fill="#0D1616"/>
<path d="M252.554 149.204C270.665 131.596 292.451 118.21 316.356 110.001L347.797 200.967C337.278 204.579 327.693 210.469 319.724 218.216L252.554 149.204Z" stroke="#D8CDBB" stroke-width="2" mask="url(#path-1-outside-1_272_1107)"/>
<mask id="path-2-outside-2_272_1107" maskUnits="userSpaceOnUse" x="152.216" y="142.014" width="362.82" height="334.401" fill="black">
<rect fill="white" x="152.216" y="142.014" width="362.82" height="334.401"/>
<path d="M449.561 426.429C412.893 444.637 370.88 449.191 331.077 439.271C291.275 429.35 256.295 405.608 232.43 372.313C208.565 339.018 197.38 298.356 200.889 257.641C204.397 216.925 222.367 178.829 251.568 150.204L319.274 218.824C306.426 231.419 298.519 248.181 296.975 266.096C295.431 284.011 300.353 301.902 310.853 316.552C321.354 331.202 336.745 341.648 354.258 346.013C371.771 350.378 390.257 348.375 406.391 340.363L449.561 426.429Z"/>
</mask>
<path d="M449.561 426.429C412.893 444.637 370.88 449.191 331.077 439.271C291.275 429.35 256.295 405.608 232.43 372.313C208.565 339.018 197.38 298.356 200.889 257.641C204.397 216.925 222.367 178.829 251.568 150.204L319.274 218.824C306.426 231.419 298.519 248.181 296.975 266.096C295.431 284.011 300.353 301.902 310.853 316.552C321.354 331.202 336.745 341.648 354.258 346.013C371.771 350.378 390.257 348.375 406.391 340.363L449.561 426.429Z" fill="#588783"/>
<path d="M449.561 426.429C412.893 444.637 370.88 449.191 331.077 439.271C291.275 429.35 256.295 405.608 232.43 372.313C208.565 339.018 197.38 298.356 200.889 257.641C204.397 216.925 222.367 178.829 251.568 150.204L319.274 218.824C306.426 231.419 298.519 248.181 296.975 266.096C295.431 284.011 300.353 301.902 310.853 316.552C321.354 331.202 336.745 341.648 354.258 346.013C371.771 350.378 390.257 348.375 406.391 340.363L449.561 426.429Z" stroke="#D8CDBB" stroke-width="2" mask="url(#path-2-outside-2_272_1107)"/>
<mask id="path-3-outside-3_272_1107" maskUnits="userSpaceOnUse" x="382.221" y="222.858" width="212.96" height="206.455" fill="black">
<rect fill="white" x="382.221" y="222.858" width="212.96" height="206.455"/>
<path d="M543.411 254.916C547.111 289.723 540.096 324.81 523.307 355.468C506.518 386.125 480.758 410.887 449.485 426.431L406.713 340.361C420.473 333.522 431.807 322.627 439.195 309.137C446.582 295.648 449.668 280.21 448.04 264.894L543.411 254.916Z"/>
</mask>
<path d="M543.411 254.916C547.111 289.723 540.096 324.81 523.307 355.468C506.518 386.125 480.758 410.887 449.485 426.431L406.713 340.361C420.473 333.522 431.807 322.627 439.195 309.137C446.582 295.648 449.668 280.21 448.04 264.894L543.411 254.916Z" fill="#1F6C66"/>
<path d="M543.411 254.916C547.111 289.723 540.096 324.81 523.307 355.468C506.518 386.125 480.758 410.887 449.485 426.431L406.713 340.361C420.473 333.522 431.807 322.627 439.195 309.137C446.582 295.648 449.668 280.21 448.04 264.894L543.411 254.916Z" stroke="#D8CDBB" stroke-width="2" mask="url(#path-3-outside-3_272_1107)"/>
<mask id="path-4-outside-4_272_1107" maskUnits="userSpaceOnUse" x="318.026" y="48.007" width="241.303" height="272.121" fill="black">
<rect fill="white" x="318.026" y="48.007" width="241.303" height="272.121"/>
<path d="M354.916 101.441C377.319 99.0743 399.963 101.14 421.555 107.519C443.146 113.898 463.263 124.466 480.756 138.619C498.25 152.772 512.777 170.234 523.509 190.006C534.24 209.779 540.966 231.476 543.302 253.858L447.768 263.949C446.74 254.1 443.781 244.554 439.059 235.854C434.337 227.154 427.945 219.471 420.248 213.243C412.551 207.016 403.699 202.366 394.199 199.559C384.699 196.753 374.735 195.844 364.878 196.885L354.916 101.441Z"/>
</mask>
<path d="M354.916 101.441C377.319 99.0743 399.963 101.14 421.555 107.519C443.146 113.898 463.263 124.466 480.756 138.619C498.25 152.772 512.777 170.234 523.509 190.006C534.24 209.779 540.966 231.476 543.302 253.858L447.768 263.949C446.74 254.1 443.781 244.554 439.059 235.854C434.337 227.154 427.945 219.471 420.248 213.243C412.551 207.016 403.699 202.366 394.199 199.559C384.699 196.753 374.735 195.844 364.878 196.885L354.916 101.441Z" fill="#154542"/>
<path d="M354.916 101.441C377.319 99.0743 399.963 101.14 421.555 107.519C443.146 113.898 463.263 124.466 480.756 138.619C498.25 152.772 512.777 170.234 523.509 190.006C534.24 209.779 540.966 231.476 543.302 253.858L447.768 263.949C446.74 254.1 443.781 244.554 439.059 235.854C434.337 227.154 427.945 219.471 420.248 213.243C412.551 207.016 403.699 202.366 394.199 199.559C384.699 196.753 374.735 195.844 364.878 196.885L354.916 101.441Z" stroke="#D8CDBB" stroke-width="2" mask="url(#path-4-outside-4_272_1107)"/>
<mask id="path-5-outside-5_272_1107" maskUnits="userSpaceOnUse" x="310.106" y="93.2987" width="81.1965" height="111.823" fill="black">
<rect fill="white" x="310.106" y="93.2987" width="81.1965" height="111.823"/>
<path d="M317.323 109.687C329.246 105.641 341.58 102.92 354.1 101.574L364.429 197.202C358.921 197.794 353.494 198.991 348.248 200.771L317.323 109.687Z"/>
</mask>
<path d="M317.323 109.687C329.246 105.641 341.58 102.92 354.1 101.574L364.429 197.202C358.921 197.794 353.494 198.991 348.248 200.771L317.323 109.687Z" fill="#122E2C"/>
<path d="M317.323 109.687C329.246 105.641 341.58 102.92 354.1 101.574L364.429 197.202C358.921 197.794 353.494 198.991 348.248 200.771L317.323 109.687Z" stroke="#D8CDBB" stroke-width="2" mask="url(#path-5-outside-5_272_1107)"/>
</g>
<defs>
<filter id="filter0_dddddd_272_1107" x="0.256836" y="0.490723" width="744.117" height="743.913" filterUnits="userSpaceOnUse" color-interpolation-filters="sRGB">
<feFlood flood-opacity="0" result="BackgroundImageFix"/>
<feColorMatrix in="SourceAlpha" type="matrix" values="0 0 0 0 0 0 0 0 0 0 0 0 0 0 0 0 0 0 127 0" result="hardAlpha"/>
<feOffset dy="2.76726"/>
<feGaussianBlur stdDeviation="2.75342"/>
<feColorMatrix type="matrix" values="0 0 0 0 0.321569 0 0 0 0 0.321569 0 0 0 0 0.321569 0 0 0 0.0196802 0"/>
<feBlend mode="normal" in2="BackgroundImageFix" result="effect1_dropShadow_272_1107"/>
<feColorMatrix in="SourceAlpha" type="matrix" values="0 0 0 0 0 0 0 0 0 0 0 0 0 0 0 0 0 0 127 0" result="hardAlpha"/>
<feOffset dy="6.6501"/>
<feGaussianBlur stdDeviation="6.61685"/>
<feColorMatrix type="matrix" values="0 0 0 0 0.321569 0 0 0 0 0.321569 0 0 0 0 0.321569 0 0 0 0.0282725 0"/>
<feBlend mode="normal" in2="effect1_dropShadow_272_1107" result="effect2_dropShadow_272_1107"/>
<feColorMatrix in="SourceAlpha" type="matrix" values="0 0 0 0 0 0 0 0 0 0 0 0 0 0 0 0 0 0 127 0" result="hardAlpha"/>
<feOffset dy="12.5216"/>
<feGaussianBlur stdDeviation="12.4589"/>
<feColorMatrix type="matrix" values="0 0 0 0 0.321569 0 0 0 0 0.321569 0 0 0 0 0.321569 0 0 0 0.035 0"/>
<feBlend mode="normal" in2="effect2_dropShadow_272_1107" result="effect3_dropShadow_272_1107"/>
<feColorMatrix in="SourceAlpha" type="matrix" values="0 0 0 0 0 0 0 0 0 0 0 0 0 0 0 0 0 0 127 0" result="hardAlpha"/>
<feOffset dy="22.3363"/>
<feGaussianBlur stdDeviation="22.2246"/>
<feColorMatrix type="matrix" values="0 0 0 0 0.321569 0 0 0 0 0.321569 0 0 0 0 0.321569 0 0 0 0.0417275 0"/>
<feBlend mode="normal" in2="effect3_dropShadow_272_1107" result="effect4_dropShadow_272_1107"/>
<feColorMatrix in="SourceAlpha" type="matrix" values="0 0 0 0 0 0 0 0 0 0 0 0 0 0 0 0 0 0 127 0" result="hardAlpha"/>
<feOffset dy="41.7776"/>
<feGaussianBlur stdDeviation="41.5687"/>
<feColorMatrix type="matrix" values="0 0 0 0 0.321569 0 0 0 0 0.321569 0 0 0 0 0.321569 0 0 0 0.0503198 0"/>
<feBlend mode="normal" in2="effect4_dropShadow_272_1107" result="effect5_dropShadow_272_1107"/>
<feColorMatrix in="SourceAlpha" type="matrix" values="0 0 0 0 0 0 0 0 0 0 0 0 0 0 0 0 0 0 127 0" result="hardAlpha"/>
<feOffset dy="100"/>
<feGaussianBlur stdDeviation="99.5"/>
<feColorMatrix type="matrix" values="0 0 0 0 0.321569 0 0 0 0 0.321569 0 0 0 0 0.321569 0 0 0 0.07 0"/>
<feBlend mode="normal" in2="effect5_dropShadow_272_1107" result="effect6_dropShadow_272_1107"/>
<feBlend mode="normal" in="SourceGraphic" in2="effect6_dropShadow_272_1107" result="shape"/>
</filter>
</defs>
</svg>
