<svg width="16" height="12" viewBox="0 0 16 12" fill="none" xmlns="http://www.w3.org/2000/svg">
<path fill-rule="evenodd" clip-rule="evenodd" d="M1.14546 0.0524162C0.348861 0.245133 -0.152474 1.05704 0.0486349 1.82872C0.110036 2.06434 0.225277 2.27483 0.382296 2.43813C0.522473 2.58394 7.17845 7.03164 7.42203 7.14228C7.79334 7.31092 8.23581 7.30477 8.61478 7.12564C8.9121 6.98511 15.4326 2.62379 15.5983 2.45468C16.3765 1.65995 15.9518 0.312776 14.8404 0.0509797C14.548 -0.0179125 1.43053 -0.0165385 1.14546 0.0524162ZM0.000732422 7.00975C0.000732422 9.53899 0.0112316 10.6995 0.0351672 10.8146C0.149658 11.365 0.595561 11.814 1.1598 11.9469C1.45415 12.0163 14.4935 12.0184 14.8205 11.9491C15.3892 11.8287 15.8489 11.373 15.965 10.8146C16.0047 10.624 16.0154 3.3634 15.976 3.38088C15.9631 3.3866 14.452 4.39216 12.618 5.61545C10.784 6.83873 9.18289 7.8902 9.06002 7.95203C8.71461 8.12589 8.42176 8.19225 8.00011 8.19225C7.57845 8.19225 7.2856 8.12589 6.94019 7.95203C6.81732 7.8902 5.21623 6.83873 3.38219 5.61545C1.54817 4.39216 0.0370733 3.3866 0.0241681 3.38088C0.0112628 3.37514 0.000732422 5.00816 0.000732422 7.00975Z" fill="#AEAEAF"/>
</svg>
