<svg width="13" height="16" viewBox="0 0 13 16" fill="none" xmlns="http://www.w3.org/2000/svg">
<path fill-rule="evenodd" clip-rule="evenodd" d="M5.83123 0.0399885C4.99935 0.174226 4.25611 0.578785 3.67355 1.21445C3.03449 1.91178 2.70331 2.71702 2.65777 3.68423C2.59416 5.03512 3.23999 6.3265 4.35346 7.07498C4.90114 7.44311 5.42938 7.63004 6.0692 7.68207C7.25511 7.7785 8.26636 7.3959 9.08271 6.54185C9.72896 5.86578 10.0594 5.13018 10.1399 4.1887C10.2474 2.93106 9.78641 1.75978 8.8622 0.9426C8.26615 0.415529 7.71616 0.155215 6.95832 0.0413956C6.59424 -0.0132939 6.16479 -0.0138255 5.83123 0.0399885ZM3.06462 7.75208C1.68707 7.90142 0.732483 8.91607 0.287343 10.7041C-0.00947825 11.8964 -0.0858159 13.3291 0.105729 14.1124C0.259622 14.7417 0.767118 15.3803 1.35497 15.6843C1.622 15.8224 2.00348 15.9369 2.32156 15.9745C2.51003 15.9967 3.94871 16.0043 6.6994 15.9977L10.7965 15.9877L11.0555 15.9147C12.0167 15.6439 12.6764 14.9828 12.9165 14.0499C13.0415 13.5639 13.0255 12.4075 12.881 11.4937C12.5599 9.46234 11.7498 8.24275 10.4683 7.86155C10.1753 7.77441 9.6511 7.70812 9.49571 7.7386C9.34706 7.76775 9.13925 7.88172 8.67016 8.19132C8.17047 8.52111 8.1012 8.55867 7.727 8.70257C7.29362 8.8692 6.93597 8.93946 6.52086 8.93952C6.09183 8.93955 5.76376 8.87924 5.33105 8.72079C4.92243 8.57117 4.90473 8.5616 4.26659 8.14557C3.93007 7.92619 3.68111 7.78566 3.58217 7.75934C3.41307 7.71431 3.4131 7.71431 3.06462 7.75208Z" fill="#AEAEAF"/>
</svg>
