<svg width="16" height="16" viewBox="0 0 16 16" fill="none" xmlns="http://www.w3.org/2000/svg">
<path fill-rule="evenodd" clip-rule="evenodd" d="M2.77038 0.0422481C2.38249 0.126391 2.30776 0.184751 1.29398 1.19582C0.409292 2.07815 0.340871 2.15444 0.23708 2.37392C0.0660607 2.73562 0.0233765 2.93213 0.00485912 3.44353C-0.0138466 3.95994 0.028461 4.30114 0.184917 4.89512C1.12745 8.47355 5.35221 13.1799 9.39578 15.1561C10.5949 15.7421 11.5003 15.997 12.3931 16C12.9396 16.0018 13.216 15.9466 13.5947 15.7604C13.8386 15.6404 13.9028 15.5835 14.7831 14.7066C15.769 13.7247 15.8279 13.6504 15.9518 13.2343C16.017 13.0152 16.017 12.6043 15.9518 12.3851C15.8395 12.0076 15.7937 11.9528 14.5468 10.7024C13.8888 10.0424 13.2656 9.44231 13.162 9.3688C12.5393 8.92681 11.7398 8.98811 11.2189 9.51775C11.0613 9.67803 11.0006 9.77187 10.8917 10.024C10.8182 10.1942 10.7199 10.385 10.6732 10.448C10.3733 10.8532 9.79422 11.1112 9.30163 11.0591C8.56724 10.9813 7.47154 10.3198 6.54338 9.39365C5.41975 8.27247 4.75702 6.98247 4.91865 6.23109C4.99392 5.88122 5.24026 5.51511 5.53161 5.32006C5.60273 5.27247 5.75272 5.19452 5.86492 5.1469C6.19089 5.00843 6.27108 4.96303 6.42239 4.83126C6.94464 4.3764 7.05895 3.52508 6.67881 2.92152C6.56692 2.74391 4.40277 0.560689 4.13873 0.359077C3.92822 0.198331 3.65194 0.0745411 3.40324 0.029481C3.16763 -0.0132009 3.01146 -0.0100404 2.77038 0.0422481Z" fill="#AEAEAF"/>
</svg>
