<?xml version="1.0" standalone="no"?>
<!DOCTYPE svg PUBLIC "-//W3C//DTD SVG 20010904//EN"
 "http://www.w3.org/TR/2001/REC-SVG-20010904/DTD/svg10.dtd">
<svg version="1.0" xmlns="http://www.w3.org/2000/svg"
 width="1022.000000pt" height="1022.000000pt" viewBox="0 0 1022.000000 1022.000000"
 preserveAspectRatio="xMidYMid meet">
<metadata>
Created by potrace 1.14, written by Peter Selinger 2001-2017
</metadata>
<g transform="translate(0.000000,1022.000000) scale(0.100000,-0.100000)"
fill="#000000" stroke="none">
<path d="M4365 10191 c-43 -19 -90 -68 -107 -110 -7 -17 -10 -1215 -10 -3551
0 -3867 -5 -3562 59 -3622 99 -95 259 -66 321 57 20 40 20 59 20 3557 0 2569
-2 3527 -11 3553 -32 107 -167 164 -272 116z"/>
<path d="M2954 8804 c-49 -16 -110 -83 -116 -126 -3 -18 -4 -1338 -3 -2933 1
-2141 5 -2918 13 -2970 18 -110 22 -125 46 -210 46 -159 122 -321 212 -450 27
-38 53 -75 59 -82 222 -259 412 -400 681 -507 94 -37 247 -80 324 -92 25 -3
70 -10 100 -14 60 -9 327 -6 400 5 68 9 247 53 315 77 585 204 1013 740 1069
1338 3 30 6 1355 6 2943 0 3128 4 2923 -52 2980 -42 44 -124 63 -186 43 -47
-14 -98 -66 -112 -113 -7 -27 -11 -882 -13 -2953 -3 -2746 -4 -2919 -21 -2990
-58 -249 -165 -442 -340 -615 -55 -55 -139 -125 -186 -156 -91 -59 -226 -129
-251 -129 -8 0 -19 -4 -24 -9 -17 -16 -224 -63 -306 -70 -678 -58 -1279 413
-1365 1069 -4 30 -8 1358 -9 2950 -1 2641 -2 2898 -17 2925 -44 81 -137 119
-224 89z"/>
<path d="M1494 7261 c-21 -10 -49 -29 -61 -42 -52 -57 -50 69 -47 -2259 1
-1191 4 -2183 7 -2205 3 -22 8 -67 12 -100 59 -539 292 -1082 654 -1525 144
-176 388 -411 528 -508 10 -7 53 -37 95 -67 174 -122 432 -260 633 -338 181
-70 469 -150 615 -171 19 -2 58 -8 85 -12 28 -3 59 -8 69 -10 124 -22 614 -22
731 0 11 2 43 7 70 10 361 49 738 176 1073 363 270 150 513 339 726 562 33 36
71 75 83 88 13 13 63 76 113 141 113 146 100 128 138 187 18 28 37 57 42 65
204 308 386 814 426 1185 3 28 8 61 11 75 3 14 8 279 9 590 9 1369 8 1327 32
1420 43 172 89 278 179 413 210 313 546 511 938 552 71 8 112 24 142 56 74 80
59 204 -31 267 -35 24 -48 27 -115 26 -69 0 -119 -5 -191 -19 -14 -3 -35 -7
-47 -9 -102 -20 -281 -84 -398 -144 -77 -39 -250 -154 -305 -203 -98 -87 -146
-137 -226 -234 -125 -154 -234 -375 -290 -588 -40 -155 -42 -204 -43 -1037 -1
-776 -3 -909 -16 -1050 -15 -176 -76 -441 -141 -619 -198 -538 -562 -995
-1048 -1316 -298 -196 -650 -338 -986 -399 -126 -23 -135 -24 -208 -32 -37 -3
-76 -8 -87 -10 -31 -6 -374 -6 -425 0 -25 3 -72 8 -105 11 -214 20 -566 112
-755 197 -243 109 -426 218 -615 366 -190 148 -378 339 -490 496 -11 15 -34
47 -50 70 -53 71 -130 197 -184 301 -160 305 -258 643 -287 989 -4 45 -8 1042
-9 2216 -1 1531 -4 2142 -12 2160 -38 86 -152 130 -239 91z"/>
</g>
</svg>
