<svg width="38" height="36" viewBox="0 0 38 36" fill="none" xmlns="http://www.w3.org/2000/svg">
<path d="M37.9987 26.3832C37.985 23.791 37.985 21.1986 37.9167 18.6062C37.8893 17.4912 37.8073 16.3624 37.5611 15.2753C37.1646 13.5192 36.2346 12.0836 34.4705 11.4983C32.5285 10.8711 30.7917 11.4564 29.219 12.6969C29.1369 12.7526 29.0686 12.892 29.0686 12.9896C29.055 14.216 29.0686 15.4286 29.0686 16.6411C29.643 16.5297 30.1627 16.3763 30.6823 16.3206C31.3798 16.2648 32.0362 16.4042 32.4328 17.0731C32.8294 17.7422 33.0892 18.4809 33.0892 19.2613C33.1165 22.2439 33.1165 25.2265 33.0892 28.2091C33.0755 29.5192 32.3918 30.3972 31.202 30.8292C31.1062 30.871 30.9695 31.0104 30.9559 31.108C30.9559 32.5854 30.9695 34.0488 30.9695 35.5261C30.9695 35.7771 31.0652 35.8745 31.3388 35.8885C33.896 35.9164 36.4533 34.1185 37.3423 31.6376C37.9304 29.9373 38.0123 28.1533 37.9987 26.3832ZM32.8567 5.25435C34.1012 5.11498 35.3593 4.96167 36.6038 4.83624C36.809 4.80837 36.9183 4.76655 36.9183 4.52962C36.9183 3.05226 36.9183 1.56097 36.9183 0C34.8806 0.236934 32.9251 0.459931 30.9695 0.696864C28.7266 0.961673 26.5386 1.25436 24.2958 1.49129C24.2274 2.43903 24.1454 3.41464 24.0908 4.3763C24.0497 4.97561 24.036 5.58885 23.995 6.21603C25.2395 6.07666 26.4428 5.95122 27.6326 5.82579C29.3695 5.64459 31.1062 5.44947 32.8567 5.25435ZM27.8789 20.4459C27.9336 17.8955 28.0019 15.3589 28.0703 12.8084C28.1113 11.3589 28.166 9.89547 28.2071 8.446C28.2207 8.01393 28.2071 7.58188 28.2071 7.13589C28.0019 7.13589 27.8652 7.13589 27.7147 7.13589C26.607 7.19164 25.4856 7.27527 24.3779 7.30314C23.9813 7.31708 23.8992 7.47039 23.8856 7.81881C23.8719 8.61324 23.8308 9.4216 23.8035 10.216C23.6942 13.3659 23.5711 16.5297 23.4616 19.6794C23.4479 20.0975 23.4616 20.5156 23.4616 21.0174C24.8838 20.9757 26.2378 20.9199 27.5916 20.8781C27.8925 20.8641 27.8789 20.669 27.8789 20.4459ZM29.6156 30.7596C28.5489 30.6342 28.0019 29.5889 27.9608 28.5714C27.9199 27.3311 27.8925 26.0906 27.8652 24.8642C27.8652 24.5435 27.7831 24.432 27.4412 24.432C26.2514 24.4738 25.0617 24.5017 23.8719 24.5017C23.5574 24.5017 23.489 24.6411 23.5027 24.9198C23.53 25.7004 23.5163 26.4947 23.53 27.2753C23.5711 28.4878 23.53 29.7004 23.7078 30.885C23.9403 32.4042 24.6651 33.7422 25.9369 34.6342C27.0583 35.4146 28.3848 35.7213 29.8208 35.9024C29.8208 34.23 29.8208 32.6133 29.8071 30.9965C29.8482 30.9268 29.7114 30.7736 29.6156 30.7596ZM6.92793 27.9442C6.94161 27.4564 6.75015 27.3032 6.2715 27.2892C4.54839 27.2056 4.04239 26.662 4.00137 24.8919C3.97402 23.554 4.00137 22.216 3.97402 20.8641C3.96034 20.2927 3.90564 19.7213 3.86462 19.1498H0.0354685C0.0354685 21.2265 -0.0602602 23.2335 0.0628195 25.2265C0.322655 29.31 2.45603 31.6098 6.21681 32.0697C6.75015 32.1394 6.94161 31.9861 6.92793 31.4425C6.91425 30.2718 6.91425 29.115 6.92793 27.9442ZM0.0217929 17.6028H3.87829C3.87829 16.4321 3.86462 15.3171 3.87829 14.216C3.91931 11.9442 4.54839 11.2335 6.75015 10.9686C6.79118 10.9686 6.83221 10.9129 6.91425 10.8571V7.13589C4.30223 6.82926 1.43037 8.7108 0.48676 11.3031C-0.265392 13.3659 0.131198 15.4844 0.0217929 17.6028ZM7.73478 36H12.0973V2.68989C10.593 2.85714 9.17072 3.01045 7.73478 3.16376V36ZM15.8717 12.8223C15.8854 13.6585 15.8854 14.4948 15.8854 15.331C15.8854 15.9025 15.8854 16.46 15.8854 17.0175H20.2752C20.2752 15.094 20.3573 13.2683 20.2479 11.4564C20.1522 9.83973 19.3864 8.51568 18.0187 7.60976C16.6102 6.68989 15.0375 6.55052 13.4238 6.68989C13.2734 6.70383 13.0272 6.94076 13.0272 7.09408C12.9998 8.27874 13.0135 9.46341 13.0135 10.676C13.3554 10.6899 13.6016 10.7038 13.834 10.7178C15.311 10.7735 15.8444 11.331 15.8717 12.8223ZM20.3162 18.6062C19.0445 18.6062 17.8547 18.6341 16.6649 18.5923C16.1178 18.5784 15.9265 18.7735 15.9401 19.345C15.9538 20.9337 15.9128 22.5366 15.9128 24.1254C15.9128 26.1603 15.1469 27.2614 13.2461 27.4564C13.1777 27.4564 13.1229 27.5261 13.0682 27.554V31.7213C16.829 31.9303 19.2222 29.8954 19.988 26.9407C20.6991 24.1951 20.1522 21.4077 20.3162 18.6062Z" fill="url(#paint0_linear_272_946)"/>
<defs>
<linearGradient id="paint0_linear_272_946" x1="2.36017" y1="18.0024" x2="38.2742" y2="18.0024" gradientUnits="userSpaceOnUse">
<stop offset="0.0343547" stop-color="#273580"/>
<stop offset="0.2149" stop-color="#46317C"/>
<stop offset="0.6071" stop-color="#942673"/>
<stop offset="0.8615" stop-color="#CA1E6D"/>
</linearGradient>
</defs>
</svg>
