<svg width="37" height="37" viewBox="0 0 37 37" fill="none" xmlns="http://www.w3.org/2000/svg">
<g clip-path="url(#clip0_272_957)">
<path d="M18.5144 37.0288C28.7396 37.0288 37.0288 28.7396 37.0288 18.5144C37.0288 8.28919 28.7396 0 18.5144 0C8.28919 0 0 8.28919 0 18.5144C0 28.7396 8.28919 37.0288 18.5144 37.0288Z" fill="url(#paint0_linear_272_957)"/>
<path fill-rule="evenodd" clip-rule="evenodd" d="M8.36254 18.3127C13.7554 15.9479 17.3602 14.4194 19.177 13.6696C24.3103 11.5356 25.3773 11.1607 26.0695 11.1318C26.2137 11.1318 26.5597 11.1607 26.7904 11.3337C26.9635 11.4779 27.0211 11.6798 27.05 11.824C27.0788 11.9682 27.1077 12.2854 27.0788 12.5449C26.7904 15.4576 25.6081 22.5808 24.9736 25.8396C24.7141 27.2238 24.195 27.6852 23.7047 27.7429C22.6377 27.8294 21.8014 27.0219 20.7632 26.3586C19.1482 25.2916 18.2254 24.6283 16.6392 23.5901C14.8224 22.3789 16.0048 21.7156 17.043 20.6486C17.3025 20.3602 22.0609 16.0632 22.1474 15.6595C22.1474 15.6018 22.1763 15.4288 22.0609 15.3423C21.9455 15.2558 21.8014 15.2846 21.686 15.3134C21.513 15.3423 18.9175 17.0726 13.8707 20.4756C13.1209 20.9947 12.4576 21.2254 11.852 21.2254C11.1887 21.2254 9.91982 20.8505 8.96815 20.5332C7.8146 20.1583 6.89176 19.9565 6.97828 19.322C7.03596 19.0048 7.49738 18.6587 8.36254 18.3127Z" fill="white"/>
</g>
<defs>
<linearGradient id="paint0_linear_272_957" x1="0" y1="18.501" x2="37.002" y2="18.501" gradientUnits="userSpaceOnUse">
<stop stop-color="#2AABEE"/>
<stop offset="1" stop-color="#229ED9"/>
</linearGradient>
<clipPath id="clip0_272_957">
<rect width="37" height="37" fill="white"/>
</clipPath>
</defs>
</svg>
