<svg width="38" height="38" viewBox="0 0 38 38" fill="none" xmlns="http://www.w3.org/2000/svg">
<g clip-path="url(#clip0_272_962)">
<path d="M0 17.9622C0 9.49472 0 5.26099 2.6305 2.6305C5.26099 0 9.49472 0 17.9622 0H19.5241C27.9915 0 32.2253 0 34.8557 2.6305C37.4863 5.26099 37.4863 9.49472 37.4863 17.9622V19.5241C37.4863 27.9915 37.4863 32.2253 34.8557 34.8557C32.2253 37.4863 27.9915 37.4863 19.5241 37.4863H17.9622C9.49472 37.4863 5.26099 37.4863 2.6305 34.8557C0 32.2253 0 27.9915 0 19.5241L0 17.9622Z" fill="#2787F5"/>
<path fill-rule="evenodd" clip-rule="evenodd" d="M10.1538 11.7148H7.41981C6.63866 11.7148 6.48242 12.0825 6.48242 12.4878C6.48242 13.2119 7.40932 16.8027 10.7982 21.5518C13.0574 24.7951 16.2405 26.5532 19.137 26.5532C20.8749 26.5532 21.0899 26.1627 21.0899 25.4901V23.0388C21.0899 22.2579 21.2545 22.102 21.8048 22.102C22.2103 22.102 22.9055 22.3047 24.5275 23.8684C26.3813 25.7217 26.6869 26.5532 27.7296 26.5532H30.4636C31.2448 26.5532 31.6353 26.1627 31.41 25.3921C31.1635 24.6241 30.2784 23.5097 29.104 22.1889C28.4667 21.436 27.5109 20.6252 27.2212 20.2197C26.8158 19.6985 26.9316 19.4668 27.2212 19.0035C27.2212 19.0035 30.5522 14.3123 30.8998 12.7196C31.0736 12.1404 30.8998 11.7148 30.073 11.7148H27.339C26.6439 11.7148 26.3234 12.0825 26.1495 12.4878C26.1495 12.4878 24.7592 15.876 22.7897 18.0768C22.1524 18.7138 21.8627 18.9166 21.5151 18.9166C21.3414 18.9166 21.0898 18.7138 21.0898 18.1348V12.7196C21.0898 12.0246 20.8881 11.7148 20.3087 11.7148H16.0124C15.578 11.7148 15.3167 12.0374 15.3167 12.3431C15.3167 13.002 16.3015 13.1539 16.403 15.0072V19.0325C16.403 19.915 16.2435 20.075 15.896 20.075C14.9692 20.075 12.7146 16.6717 11.3774 12.7775C11.1154 12.0206 10.8525 11.7148 10.1538 11.7148Z" fill="white"/>
</g>
<defs>
<clipPath id="clip0_272_962">
<rect width="38" height="38" fill="white"/>
</clipPath>
</defs>
</svg>
