<svg width="170" height="74" viewBox="0 0 170 74" fill="none" xmlns="http://www.w3.org/2000/svg">
<path d="M165.544 48.5203C165.827 48.4553 166.093 48.353 166.342 48.223C166.729 48.0186 167.081 47.74 167.39 47.3777C167.699 47.0061 167.931 46.6066 168.094 46.1793C168.248 45.7519 168.325 45.2875 168.325 44.7765C168.325 43.7268 167.973 42.8256 167.287 42.0825L167.252 42.0361C166.909 41.6738 166.54 41.4044 166.145 41.2279C165.956 41.1443 165.75 41.0792 165.544 41.0327V48.5203ZM163.87 53.1745V39.9552C163.87 39.5 164.204 39.1377 164.617 39.1377H164.797C165.509 39.1377 166.171 39.277 166.789 39.5557C167.407 39.8344 167.973 40.2431 168.471 40.7912H168.48C168.978 41.33 169.356 41.9432 169.613 42.612C169.871 43.2809 170 44.0055 170 44.7765C170 45.5104 169.879 46.1978 169.648 46.8388C169.416 47.4798 169.072 48.0651 168.609 48.6039C168.154 49.1427 167.63 49.5607 167.063 49.858C166.583 50.0995 166.085 50.2575 165.544 50.3411V53.1745C165.544 53.6297 165.209 53.992 164.797 53.992H164.617C164.204 53.992 163.87 53.6297 163.87 53.1745ZM152.683 46.2536L158.203 41.8224C158.006 41.6552 157.791 41.4973 157.534 41.358C157.285 41.2186 157.036 41.1164 156.778 41.0513C156.521 40.9863 156.246 40.9491 155.954 40.9491C155.465 40.9491 155.01 41.0421 154.598 41.2279C154.194 41.4137 153.808 41.6923 153.464 42.0732C153.112 42.4541 152.846 42.8629 152.683 43.3088C152.511 43.7547 152.425 44.2377 152.425 44.7672C152.425 45.2967 152.511 45.7892 152.683 46.2258V46.2536ZM159.234 46.8853H159.483C159.895 46.8853 160.229 47.2476 160.229 47.7028C160.229 47.9072 160.161 48.0929 160.041 48.2323C159.835 48.5388 159.594 48.8175 159.319 49.0591L159.268 49.1056C158.993 49.3471 158.684 49.57 158.349 49.7558C157.98 49.9695 157.594 50.1274 157.199 50.2296C156.795 50.3318 156.383 50.3783 155.954 50.3783C155.241 50.3783 154.572 50.2481 153.954 49.9694C153.335 49.6908 152.777 49.2913 152.271 48.7433C151.764 48.2044 151.387 47.6007 151.129 46.9318C150.871 46.2629 150.751 45.5383 150.751 44.7672C150.751 43.9962 150.871 43.2809 151.129 42.612C151.387 41.9339 151.764 41.33 152.271 40.7819C152.769 40.2431 153.327 39.8344 153.954 39.5557C154.572 39.277 155.241 39.1377 155.954 39.1377C156.392 39.1377 156.813 39.1934 157.225 39.3048C157.637 39.4256 158.04 39.5929 158.418 39.8158C158.787 40.0388 159.122 40.2896 159.414 40.5775C159.723 40.8655 159.98 41.1907 160.204 41.5344C160.436 41.906 160.35 42.4076 160.006 42.6584L153.713 47.7121C153.988 47.9722 154.288 48.1673 154.598 48.3067C155.01 48.4925 155.465 48.5853 155.954 48.5853C156.229 48.5853 156.486 48.5574 156.735 48.4924C156.993 48.4274 157.242 48.3345 157.482 48.2045C157.731 48.0837 157.946 47.935 158.135 47.7678C158.324 47.6006 158.495 47.4148 158.633 47.2104C158.787 46.9968 159.01 46.8853 159.234 46.8853ZM144.982 50.211H144.802C144.39 50.211 144.055 49.8487 144.055 49.4028V41.1442H142.879C142.466 41.1442 142.132 40.7819 142.132 40.3267V40.1409C142.132 39.695 142.466 39.3234 142.879 39.3234H146.896C147.317 39.3234 147.652 39.695 147.652 40.1409V40.3267C147.652 40.7819 147.317 41.1442 146.896 41.1442H145.729V49.4028C145.729 49.8487 145.394 50.211 144.982 50.211ZM139.204 49.4028V49.5887C139.204 50.0346 138.869 50.3969 138.457 50.3969H138.285C138.26 50.3969 138.234 50.3969 138.208 50.3969C137.513 50.3783 136.877 50.2389 136.285 49.9694C135.667 49.7 135.109 49.2913 134.602 48.7433C134.096 48.2044 133.718 47.6007 133.46 46.9318C133.203 46.2629 133.083 45.5383 133.083 44.7672C133.083 43.9962 133.203 43.2809 133.46 42.612C133.718 41.9339 134.096 41.33 134.602 40.7819C135.1 40.2431 135.667 39.8344 136.285 39.5557C136.903 39.277 137.573 39.1377 138.285 39.1377H138.457C138.869 39.1377 139.204 39.5 139.204 39.9552V40.1409C139.204 40.5869 138.869 40.9491 138.457 40.9491H138.285C137.796 40.9491 137.341 41.0421 136.929 41.2279C136.525 41.4137 136.139 41.6923 135.796 42.0732C135.444 42.4541 135.177 42.8629 135.014 43.3088C134.843 43.7547 134.757 44.2377 134.757 44.7672C134.757 45.2967 134.843 45.7892 135.014 46.2258C135.177 46.6717 135.444 47.0804 135.796 47.4613C136.139 47.8421 136.525 48.1302 136.929 48.3067C137.341 48.4925 137.796 48.5853 138.285 48.5853H138.457C138.869 48.5853 139.204 48.9476 139.204 49.4028ZM127.725 48.9104C127.519 49.1055 127.296 49.3007 127.047 49.4772C126.627 49.7745 126.171 49.9974 125.691 50.1553C125.218 50.3039 124.721 50.3783 124.197 50.3783C123.493 50.3783 122.823 50.2481 122.205 49.9694C121.587 49.6908 121.029 49.2913 120.522 48.7433C120.016 48.2044 119.638 47.6007 119.38 46.9318C119.123 46.2629 118.994 45.5383 118.994 44.7672C118.994 43.9962 119.123 43.2809 119.38 42.612C119.638 41.9339 120.016 41.33 120.514 40.7819C121.02 40.2431 121.578 39.8344 122.205 39.5557C122.823 39.277 123.493 39.1377 124.197 39.1377C124.763 39.1377 125.304 39.2305 125.819 39.4163C126.335 39.6021 126.824 39.8715 127.288 40.2431C127.442 40.3639 127.588 40.494 127.725 40.6333V40.1409C127.725 39.695 128.069 39.3234 128.481 39.3234H128.653C129.065 39.3234 129.408 39.695 129.408 40.1409V49.4028C129.408 49.8487 129.065 50.211 128.653 50.211H128.481C128.069 50.211 127.725 49.8487 127.725 49.4028V48.9104ZM124.197 40.9491C123.707 40.9491 123.261 41.0421 122.849 41.2279C122.445 41.4137 122.059 41.6923 121.707 42.0732C121.364 42.4541 121.098 42.8629 120.926 43.3088C120.763 43.7547 120.677 44.2377 120.677 44.7672C120.677 45.2967 120.763 45.7892 120.926 46.2258C121.098 46.6717 121.364 47.0804 121.707 47.4613C122.059 47.8421 122.445 48.1302 122.849 48.3067C123.261 48.4925 123.707 48.5853 124.197 48.5853C124.918 48.5853 125.553 48.3902 126.12 47.9814C126.412 47.7771 126.669 47.5448 126.875 47.2847C127.09 47.0246 127.262 46.7274 127.399 46.4115C127.476 46.2443 127.588 46.1142 127.725 46.0399V44.7672C127.725 44.2377 127.64 43.7547 127.476 43.3088C127.305 42.8629 127.039 42.4541 126.695 42.0732C126.343 41.6923 125.957 41.4137 125.553 41.2279C125.141 41.0421 124.695 40.9491 124.197 40.9491Z" fill="#1F6C66"/>
<path d="M109.284 45.9938L106.416 40.1784V49.403C106.416 49.8489 106.081 50.2112 105.669 50.2112H105.489C105.077 50.2112 104.742 49.8489 104.742 49.403V36.1744C104.742 35.7192 105.077 35.3569 105.489 35.3569C105.798 35.3569 106.073 35.5613 106.185 35.8586L109.945 43.4948L113.74 35.7935C113.929 35.3941 114.384 35.2454 114.753 35.4591C115.002 35.6077 115.148 35.8865 115.148 36.1744V49.403C115.148 49.8489 114.813 50.2112 114.401 50.2112H114.22C113.808 50.2112 113.473 49.8489 113.473 49.403V40.1784L110.606 46.0031C110.408 46.3932 109.953 46.5418 109.593 46.3375C109.456 46.2539 109.353 46.1331 109.284 45.9938Z" fill="#1F6C66"/>
<path d="M99.3949 49.4028V49.5887C99.3949 50.0346 99.0515 50.3969 98.6394 50.3969H98.4677C98.4419 50.3969 98.4162 50.3969 98.3904 50.3969C97.695 50.3783 97.0597 50.2389 96.4673 49.9694C95.8491 49.7 95.2911 49.2913 94.7846 48.7433C94.278 48.2044 93.9003 47.6007 93.6427 46.9318C93.3938 46.2629 93.265 45.5383 93.265 44.7672C93.265 43.9962 93.3938 43.2809 93.6427 42.612C93.9003 41.9339 94.278 41.33 94.7846 40.7819C95.2825 40.2431 95.8491 39.8344 96.4673 39.5557C97.0854 39.277 97.7551 39.1377 98.4677 39.1377H98.6394C99.0515 39.1377 99.3949 39.5 99.3949 39.9552V40.1409C99.3949 40.5869 99.0515 40.9491 98.6394 40.9491H98.4677C97.9783 40.9491 97.5233 41.0421 97.1198 41.2279C96.7077 41.4137 96.3299 41.6923 95.9779 42.0732C95.626 42.4541 95.3684 42.8629 95.1967 43.3088C95.025 43.7547 94.9391 44.2377 94.9391 44.7672C94.9391 45.2967 95.025 45.7892 95.1967 46.2258C95.3684 46.6717 95.626 47.0804 95.9779 47.4613C96.3299 47.8421 96.7077 48.1302 97.1198 48.3067C97.5233 48.4925 97.9783 48.5853 98.4677 48.5853H98.6394C99.0515 48.5853 99.3949 48.9476 99.3949 49.4028ZM90.1142 49.4028V49.5887C90.1142 50.0346 89.7793 50.3969 89.3586 50.3969H89.1869C89.1612 50.3969 89.1354 50.3969 89.1097 50.3969C88.4143 50.3783 87.7789 50.2389 87.1866 49.9694C86.5684 49.7 86.0104 49.2913 85.5038 48.7433C85.0059 48.2044 84.6195 47.6007 84.3706 46.9318C84.113 46.2629 83.9842 45.5383 83.9842 44.7672C83.9842 43.9962 84.113 43.2809 84.3706 42.612C84.6195 41.9339 85.0059 41.33 85.5038 40.7819C86.0018 40.2431 86.5684 39.8344 87.1866 39.5557C87.8047 39.277 88.4744 39.1377 89.1869 39.1377H89.3586C89.7793 39.1377 90.1142 39.5 90.1142 39.9552V40.1409C90.1142 40.5869 89.7793 40.9491 89.3586 40.9491H89.1869C88.6976 40.9491 88.2426 41.0421 87.839 41.2279C87.4269 41.4137 87.0492 41.6923 86.6972 42.0732C86.3452 42.4541 86.0876 42.8629 85.9159 43.3088C85.7442 43.7547 85.6584 44.2377 85.6584 44.7672C85.6584 45.2967 85.7442 45.7892 85.9159 46.2258C86.0876 46.6717 86.3452 47.0804 86.6972 47.4613C87.0492 47.8421 87.4269 48.1302 87.839 48.3067C88.2426 48.4925 88.6976 48.5853 89.1869 48.5853H89.3586C89.7793 48.5853 90.1142 48.9476 90.1142 49.4028ZM78.6356 48.9012C78.4209 49.1056 78.1977 49.3007 77.9487 49.4772C77.5281 49.7745 77.073 49.9974 76.6008 50.1553C76.1201 50.3039 75.6221 50.3783 75.107 50.3783C74.3944 50.3783 73.7248 50.2481 73.1066 49.9694C72.4885 49.6908 71.9304 49.2913 71.4239 48.7433C70.9174 48.2044 70.5396 47.6007 70.282 46.9318C70.0331 46.2629 69.9043 45.5383 69.9043 44.7672C69.9043 43.9962 70.0331 43.2809 70.282 42.612C70.5396 41.9339 70.9174 41.33 71.4239 40.7819C71.9218 40.2431 72.4885 39.8344 73.1066 39.5557C73.7248 39.277 74.3944 39.1377 75.107 39.1377C75.6651 39.1377 76.2059 39.2305 76.7296 39.4163C77.2362 39.6021 77.7255 39.8715 78.1891 40.2431C78.3437 40.3639 78.4896 40.494 78.6356 40.6333V40.1409C78.6356 39.695 78.9704 39.3234 79.3825 39.3234H79.5542C79.9749 39.3234 80.3097 39.695 80.3097 40.1409V49.4028C80.3097 49.8487 79.9749 50.211 79.5542 50.211H79.3825C78.9704 50.211 78.6356 49.8487 78.6356 49.4028V48.9012ZM75.107 40.9491C74.6176 40.9491 74.1626 41.0421 73.7591 41.2279C73.347 41.4137 72.9607 41.6923 72.6172 42.0732C72.2652 42.4541 71.9991 42.8629 71.836 43.3088C71.6643 43.7547 71.5784 44.2377 71.5784 44.7672C71.5784 45.2967 71.6643 45.7892 71.836 46.2258C71.9991 46.6717 72.2652 47.0804 72.6172 47.4613C72.9607 47.8421 73.347 48.1302 73.7591 48.3067C74.1626 48.4925 74.6176 48.5853 75.107 48.5853C75.8196 48.5853 76.4549 48.3902 77.0215 47.9814C77.322 47.7771 77.571 47.5448 77.777 47.2847C77.9917 47.0246 78.1634 46.7274 78.3008 46.4115C78.378 46.2443 78.4896 46.1142 78.6356 46.0399V44.7672C78.6356 44.2377 78.5497 43.7547 78.378 43.3088C78.2063 42.8629 77.9487 42.4541 77.5967 42.0732C77.2447 41.6923 76.867 41.4137 76.4549 41.2279C76.0428 41.0421 75.5964 40.9491 75.107 40.9491Z" fill="#1F6C66"/>
<path d="M60.1842 45.9938L57.3167 40.1784V49.403C57.3167 49.8489 56.9819 50.2112 56.5698 50.2112H56.3895C55.9774 50.2112 55.6426 49.8489 55.6426 49.403V36.1744C55.6426 35.7192 55.9774 35.3569 56.3895 35.3569C56.7072 35.3569 56.9733 35.5613 57.0849 35.8586L60.8453 43.4948L64.64 35.7935C64.8375 35.3941 65.2839 35.2454 65.6531 35.4591C65.9021 35.6077 66.048 35.8865 66.048 36.1744V49.403C66.048 49.8489 65.7132 50.2112 65.3011 50.2112H65.1294C64.7087 50.2112 64.3739 49.8489 64.3739 49.403V40.1784L61.5064 46.0031C61.3089 46.3932 60.8625 46.5418 60.4933 46.3375C60.3559 46.2539 60.2529 46.1331 60.1842 45.9938Z" fill="#1F6C66"/>
<path fill-rule="evenodd" clip-rule="evenodd" d="M20.2546 0C19.5335 0 18.9325 0.631711 18.9325 1.40276V51.2514C18.9325 52.0132 19.5335 52.6449 20.2546 52.6449C20.9844 52.6449 21.5854 52.0132 21.5854 51.2514V1.40276C21.5854 0.631711 20.9844 0 20.2546 0ZM48.1484 32.4397C46.1222 32.6069 44.2936 33.5452 42.9371 34.9851C41.4347 36.5736 40.5074 38.766 40.5074 41.1721V42.8629V47.9907V51.5858C40.5074 63.3745 31.3984 73.008 20.2546 73.008C9.11946 73.008 0.010438 63.3745 0.010438 51.5858V22.4254C-0.0840006 21.6637 0.474041 20.9855 1.21238 20.9855C1.94213 20.9855 2.50017 21.6637 2.40573 22.4254V51.5858C2.40573 61.9718 10.4416 70.4812 20.2546 70.4812C30.0763 70.4812 38.1122 61.9718 38.1122 51.5858V47.9907V42.7328V41.1721C38.1122 38.0693 39.3141 35.2453 41.2458 33.2015C43.0401 31.3064 45.4612 30.0708 48.1484 29.9036V29.9129C48.8009 29.9129 49.3418 30.4796 49.3418 31.1763C49.3418 31.873 48.8009 32.4397 48.1484 32.4397ZM28.5395 11.2406V13.7673V17.0002V51.6509C28.5395 54.057 27.6037 56.2494 26.1013 57.8379C24.5988 59.4265 22.5298 60.4111 20.2546 60.4111C17.9881 60.4111 15.9105 59.4265 14.4166 57.8379C12.9142 56.2494 11.9784 54.057 11.9784 51.6509V17.0002V13.7673V11.2406C11.9784 10.5438 11.4461 9.97717 10.785 9.97717C10.124 9.97717 9.59167 10.5438 9.59167 11.2406V51.6509C9.59167 54.763 10.7936 57.5777 12.7253 59.6215C14.657 61.6745 17.327 62.938 20.2546 62.938C23.1908 62.938 25.8609 61.6745 27.7926 59.6215C29.7243 57.5777 30.9262 54.763 30.9262 51.6509V11.2406C30.9262 10.5438 30.3939 9.97717 29.7329 9.97717C29.0718 9.97717 28.5395 10.5438 28.5395 11.2406Z" fill="#BDA875"/>
</svg>
