<svg width="32" height="32" viewBox="0 0 32 32" fill="none" xmlns="http://www.w3.org/2000/svg">
<g clip-path="url(#clip0_272_1730)">
<path d="M28.3167 21.7008L24.0833 21.2175C23.0667 21.1008 22.0667 21.4508 21.35 22.1675L18.2833 25.2342C13.5667 22.8342 9.7 18.9842 7.3 14.2508L10.3833 11.1675C11.1 10.4508 11.45 9.45085 11.3333 8.43418L10.85 4.23418C10.65 2.55085 9.23334 1.28418 7.53334 1.28418H4.65C2.76667 1.28418 1.2 2.85085 1.31667 4.73418C2.2 18.9675 13.5833 30.3342 27.8 31.2175C29.6833 31.3342 31.25 29.7675 31.25 27.8842V25.0008C31.2667 23.3175 30 21.9008 28.3167 21.7008Z" fill="#1F6C66"/>
</g>
<defs>
<clipPath id="clip0_272_1730">
<rect width="32" height="32" fill="white"/>
</clipPath>
</defs>
</svg>
