<svg width="36" height="35" viewBox="0 0 36 35" fill="none" xmlns="http://www.w3.org/2000/svg">
<path fill-rule="evenodd" clip-rule="evenodd" d="M15.6638 0.0354957C15.5346 0.057575 15.0363 0.136753 14.5566 0.211587C11.4436 0.696789 8.17972 2.30867 5.65867 4.60601C1.30596 8.57232 -0.761173 14.6259 0.254767 20.4313C1.72933 28.8576 9.01866 35 17.5438 35C24.1874 35 30.2554 31.2761 33.2475 25.3629C34.5177 22.8524 35.1216 20.2956 35.1216 17.428C35.1216 8.93762 29.02 1.71886 20.553 0.191861C19.7858 0.0534125 16.2263 -0.0603322 15.6638 0.0354957ZM18.5913 5.77657C20.1578 5.92959 21.3135 6.27643 22.5477 6.96397C24.1966 7.88261 25.4713 9.20285 26.3332 10.8847C27.3736 12.9149 27.6452 15.1463 27.1724 17.7766C27.0309 18.5633 26.5696 19.9833 26.2732 20.5444C26.0944 20.8827 26.0922 20.8837 25.4971 20.8837C24.7085 20.8837 23.4376 21.1022 22.6732 21.3694C20.8943 21.991 19.6288 23.2619 19.0121 25.0462C18.7379 25.8394 18.5179 26.9553 18.3609 28.3491L18.2488 29.3444H17.5908H16.9328L16.8602 28.7563C16.5248 26.0352 16.1754 24.723 15.5024 23.6566C14.4773 22.0319 12.5863 21.0562 10.1826 20.9113L9.26033 20.8557L9.03897 20.4351C8.71383 19.8175 8.19006 18.3211 7.99163 17.4427C7.86154 16.8672 7.81811 16.2923 7.81755 15.1377C7.81689 13.8118 7.84668 13.4934 8.03355 12.8322C8.82258 10.0399 10.5932 7.93392 13.1729 6.71965C14.5315 6.08007 15.4875 5.8515 17.4633 5.69386C17.5483 5.68708 18.0559 5.72436 18.5913 5.77657Z" fill="black"/>
<mask id="mask0_272_1751" style="mask-type:alpha" maskUnits="userSpaceOnUse" x="0" y="0" width="36" height="35">
<path fill-rule="evenodd" clip-rule="evenodd" d="M15.6638 0.0354957C15.5346 0.057575 15.0363 0.136753 14.5566 0.211587C11.4436 0.696789 8.17972 2.30867 5.65867 4.60601C1.30596 8.57232 -0.761173 14.6259 0.254767 20.4313C1.72933 28.8576 9.01866 35 17.5438 35C24.1874 35 30.2554 31.2761 33.2475 25.3629C34.5177 22.8524 35.1216 20.2956 35.1216 17.428C35.1216 8.93762 29.02 1.71886 20.553 0.191861C19.7858 0.0534125 16.2263 -0.0603322 15.6638 0.0354957ZM18.5913 5.77657C20.1578 5.92959 21.3135 6.27643 22.5477 6.96397C24.1966 7.88261 25.4713 9.20285 26.3332 10.8847C27.3736 12.9149 27.6452 15.1463 27.1724 17.7766C27.0309 18.5633 26.5696 19.9833 26.2732 20.5444C26.0944 20.8827 26.0922 20.8837 25.4971 20.8837C24.7085 20.8837 23.4376 21.1022 22.6732 21.3694C20.8943 21.991 19.6288 23.2619 19.0121 25.0462C18.7379 25.8394 18.5179 26.9553 18.3609 28.3491L18.2488 29.3444H17.5908H16.9328L16.8602 28.7563C16.5248 26.0352 16.1754 24.723 15.5024 23.6566C14.4773 22.0319 12.5863 21.0562 10.1826 20.9113L9.26033 20.8557L9.03897 20.4351C8.71383 19.8175 8.19006 18.3211 7.99163 17.4427C7.86154 16.8672 7.81811 16.2923 7.81755 15.1377C7.81689 13.8118 7.84668 13.4934 8.03355 12.8322C8.82258 10.0399 10.5932 7.93392 13.1729 6.71965C14.5315 6.08007 15.4875 5.8515 17.4633 5.69386C17.5483 5.68708 18.0559 5.72436 18.5913 5.77657Z" fill="#030303"/>
</mask>
<g mask="url(#mask0_272_1751)">
<ellipse cx="17.668" cy="18.3023" rx="19.1758" ry="19.0489" fill="#29B24A"/>
</g>
</svg>
