<svg width="95" height="41" viewBox="0 0 95 41" fill="none" xmlns="http://www.w3.org/2000/svg">
<path d="M91.8739 26.7311C92.03 26.6953 92.1766 26.639 92.3138 26.5673C92.5266 26.4547 92.7205 26.3012 92.8908 26.1016C93.0611 25.8969 93.1888 25.6768 93.2787 25.4414C93.3638 25.206 93.4064 24.9501 93.4064 24.6686C93.4064 24.0903 93.2124 23.5938 92.834 23.1844L92.8151 23.1588C92.6259 22.9592 92.4226 22.8108 92.205 22.7136C92.1009 22.6675 91.9874 22.6316 91.8739 22.606V26.7311ZM90.9516 29.2952V22.0124C90.9516 21.7616 91.136 21.562 91.3631 21.562H91.4624C91.855 21.562 92.2192 21.6388 92.5597 21.7923C92.9003 21.9458 93.2124 22.171 93.4868 22.473H93.4915C93.7658 22.7698 93.974 23.1076 94.1158 23.4761C94.2577 23.8446 94.3287 24.2438 94.3287 24.6686C94.3287 25.0729 94.2625 25.4516 94.1348 25.8047C94.007 26.1579 93.8179 26.4803 93.5625 26.7772C93.3118 27.074 93.0233 27.3043 92.7111 27.4681C92.4462 27.6011 92.1719 27.6882 91.8739 27.7342V29.2952C91.8739 29.546 91.6894 29.7456 91.4624 29.7456H91.3631C91.136 29.7456 90.9516 29.546 90.9516 29.2952ZM84.7885 25.4823L87.8299 23.0411C87.7211 22.949 87.6028 22.862 87.4609 22.7852C87.3237 22.7084 87.1866 22.6521 87.0447 22.6163C86.9028 22.5805 86.7514 22.56 86.5906 22.56C86.321 22.56 86.0703 22.6112 85.8433 22.7136C85.621 22.8159 85.4082 22.9694 85.219 23.1792C85.025 23.3891 84.8784 23.6143 84.7885 23.86C84.694 24.1056 84.6466 24.3717 84.6466 24.6635C84.6466 24.9552 84.694 25.2265 84.7885 25.467V25.4823ZM88.3974 25.8304H88.5346C88.7616 25.8304 88.9461 26.03 88.9461 26.2807C88.9461 26.3933 88.9082 26.4957 88.842 26.5724C88.7285 26.7413 88.5961 26.8949 88.4447 27.0279L88.4164 27.0536C88.265 27.1866 88.0947 27.3094 87.9103 27.4118C87.7069 27.5295 87.494 27.6165 87.2764 27.6728C87.0541 27.7291 86.8271 27.7547 86.5906 27.7547C86.1981 27.7547 85.8291 27.683 85.4886 27.5295C85.148 27.376 84.8406 27.1559 84.5615 26.854C84.2824 26.5571 84.0743 26.2245 83.9324 25.856C83.7905 25.4875 83.7243 25.0882 83.7243 24.6635C83.7243 24.2387 83.7905 23.8446 83.9324 23.4761C84.0743 23.1025 84.2824 22.7698 84.5615 22.4678C84.8358 22.171 85.1433 21.9458 85.4886 21.7923C85.8291 21.6388 86.1981 21.562 86.5906 21.562C86.8319 21.562 87.0636 21.5927 87.2906 21.6541C87.5177 21.7206 87.74 21.8128 87.9481 21.9356C88.1515 22.0584 88.3359 22.1966 88.4968 22.3553C88.667 22.5139 88.8089 22.6931 88.9319 22.8824C89.0596 23.0871 89.0123 23.3635 88.8231 23.5017L85.3561 26.2859C85.5075 26.4292 85.673 26.5367 85.8433 26.6134C86.0703 26.7158 86.321 26.7669 86.5906 26.7669C86.742 26.7669 86.8839 26.7516 87.021 26.7158C87.1629 26.6799 87.3001 26.6288 87.4325 26.5571C87.5697 26.4906 87.688 26.4087 87.792 26.3165C87.8961 26.2244 87.9907 26.1221 88.0663 26.0095C88.1515 25.8918 88.2744 25.8304 88.3974 25.8304ZM80.5458 27.6626H80.4465C80.2195 27.6626 80.035 27.463 80.035 27.2173V22.6674H79.387C79.16 22.6674 78.9755 22.4678 78.9755 22.2171V22.1147C78.9755 21.8691 79.16 21.6643 79.387 21.6643H81.6006C81.8324 21.6643 82.0168 21.8691 82.0168 22.1147V22.2171C82.0168 22.4678 81.8324 22.6674 81.6006 22.6674H80.9573V27.2173C80.9573 27.463 80.7729 27.6626 80.5458 27.6626ZM77.3626 27.2173V27.3197C77.3626 27.5654 77.1782 27.765 76.9511 27.765H76.8565C76.8424 27.765 76.8282 27.765 76.814 27.765C76.4309 27.7547 76.0808 27.6779 75.7545 27.5295C75.4139 27.3811 75.1065 27.1559 74.8274 26.854C74.5484 26.5571 74.3403 26.2245 74.1984 25.856C74.0565 25.4875 73.9902 25.0882 73.9902 24.6635C73.9902 24.2387 74.0565 23.8446 74.1984 23.4761C74.3403 23.1025 74.5484 22.7698 74.8274 22.4678C75.1018 22.171 75.4139 21.9458 75.7545 21.7923C76.095 21.6388 76.464 21.562 76.8565 21.562H76.9511C77.1782 21.562 77.3626 21.7616 77.3626 22.0124V22.1147C77.3626 22.3604 77.1782 22.56 76.9511 22.56H76.8565C76.5869 22.56 76.3362 22.6112 76.1092 22.7136C75.8869 22.8159 75.6741 22.9694 75.4849 23.1792C75.291 23.3891 75.1443 23.6143 75.0545 23.86C74.9599 24.1056 74.9126 24.3717 74.9126 24.6635C74.9126 24.9552 74.9599 25.2265 75.0545 25.467C75.1443 25.7127 75.291 25.9378 75.4849 26.1477C75.6741 26.3575 75.8869 26.5162 76.1092 26.6134C76.3362 26.7158 76.5869 26.7669 76.8565 26.7669H76.9511C77.1782 26.7669 77.3626 26.9665 77.3626 27.2173ZM71.0388 26.946C70.9253 27.0535 70.8023 27.161 70.6651 27.2583C70.4334 27.4221 70.1827 27.5449 69.9178 27.6319C69.6577 27.7138 69.3833 27.7547 69.0948 27.7547C68.707 27.7547 68.338 27.683 67.9975 27.5295C67.6569 27.376 67.3495 27.1559 67.0704 26.854C66.7914 26.5571 66.5832 26.2245 66.4414 25.856C66.2995 25.4875 66.2285 25.0882 66.2285 24.6635C66.2285 24.2387 66.2995 23.8446 66.4414 23.4761C66.5832 23.1025 66.7914 22.7698 67.0657 22.4678C67.3448 22.171 67.6522 21.9458 67.9975 21.7923C68.338 21.6388 68.707 21.562 69.0948 21.562C69.407 21.562 69.705 21.6132 69.9888 21.7155C70.2725 21.8179 70.5422 21.9663 70.7976 22.171C70.8827 22.2376 70.9631 22.3092 71.0388 22.386V22.1147C71.0388 21.8691 71.228 21.6643 71.455 21.6643H71.5496C71.7767 21.6643 71.9659 21.8691 71.9659 22.1147V27.2173C71.9659 27.463 71.7767 27.6626 71.5496 27.6626H71.455C71.228 27.6626 71.0388 27.463 71.0388 27.2173V26.946ZM69.0948 22.56C68.8252 22.56 68.5793 22.6112 68.3522 22.7136C68.1299 22.8159 67.9171 22.9694 67.7232 23.1792C67.534 23.3891 67.3873 23.6143 67.2927 23.86C67.2029 24.1056 67.1556 24.3717 67.1556 24.6635C67.1556 24.9552 67.2029 25.2265 67.2927 25.467C67.3873 25.7127 67.534 25.9378 67.7232 26.1477C67.9171 26.3575 68.1299 26.5162 68.3522 26.6134C68.5793 26.7158 68.8252 26.7669 69.0948 26.7669C69.4921 26.7669 69.8421 26.6594 70.1543 26.4342C70.3151 26.3217 70.457 26.1937 70.5705 26.0504C70.6888 25.9071 70.7834 25.7434 70.8591 25.5693C70.9016 25.4772 70.9631 25.4056 71.0388 25.3646V24.6635C71.0388 24.3717 70.9915 24.1056 70.9016 23.86C70.807 23.6143 70.6604 23.3891 70.4712 23.1792C70.2773 22.9694 70.0644 22.8159 69.8421 22.7136C69.6151 22.6112 69.3692 22.56 69.0948 22.56Z" fill="#1F6C66"/>
<path d="M60.8792 25.3391L59.2995 22.1353V27.2173C59.2995 27.463 59.115 27.6626 58.888 27.6626H58.7886C58.5616 27.6626 58.3771 27.463 58.3771 27.2173V19.9294C58.3771 19.6786 58.5616 19.479 58.7886 19.479C58.9589 19.479 59.1103 19.5916 59.1718 19.7554L61.2434 23.9623L63.334 19.7195C63.4381 19.4995 63.6888 19.4176 63.8922 19.5353C64.0293 19.6172 64.1097 19.7707 64.1097 19.9294V27.2173C64.1097 27.463 63.9253 27.6626 63.6982 27.6626H63.5989C63.3719 27.6626 63.1874 27.463 63.1874 27.2173V22.1353L61.6076 25.3442C61.4988 25.5592 61.2482 25.641 61.0495 25.5285C60.9738 25.4824 60.9171 25.4159 60.8792 25.3391Z" fill="#1F6C66"/>
<path d="M55.4307 27.2173V27.3197C55.4307 27.5654 55.2415 27.765 55.0145 27.765H54.9199C54.9057 27.765 54.8915 27.765 54.8773 27.765C54.4942 27.7547 54.1442 27.6779 53.8178 27.5295C53.4773 27.3811 53.1698 27.1559 52.8908 26.854C52.6117 26.5571 52.4036 26.2245 52.2617 25.856C52.1245 25.4875 52.0536 25.0882 52.0536 24.6635C52.0536 24.2387 52.1245 23.8446 52.2617 23.4761C52.4036 23.1025 52.6117 22.7698 52.8908 22.4678C53.1651 22.171 53.4773 21.9458 53.8178 21.7923C54.1584 21.6388 54.5273 21.562 54.9199 21.562H55.0145C55.2415 21.562 55.4307 21.7616 55.4307 22.0124V22.1147C55.4307 22.3604 55.2415 22.56 55.0145 22.56H54.9199C54.6503 22.56 54.3996 22.6112 54.1773 22.7136C53.9503 22.8159 53.7421 22.9694 53.5482 23.1792C53.3543 23.3891 53.2124 23.6143 53.1178 23.86C53.0232 24.1056 52.9759 24.3717 52.9759 24.6635C52.9759 24.9552 53.0232 25.2265 53.1178 25.467C53.2124 25.7127 53.3543 25.9378 53.5482 26.1477C53.7421 26.3575 53.9503 26.5162 54.1773 26.6134C54.3996 26.7158 54.6503 26.7669 54.9199 26.7669H55.0145C55.2415 26.7669 55.4307 26.9665 55.4307 27.2173ZM50.3177 27.2173V27.3197C50.3177 27.5654 50.1332 27.765 49.9015 27.765H49.8069C49.7927 27.765 49.7785 27.765 49.7643 27.765C49.3812 27.7547 49.0312 27.6779 48.7048 27.5295C48.3643 27.3811 48.0568 27.1559 47.7778 26.854C47.5034 26.5571 47.2906 26.2245 47.1534 25.856C47.0115 25.4875 46.9406 25.0882 46.9406 24.6635C46.9406 24.2387 47.0115 23.8446 47.1534 23.4761C47.2906 23.1025 47.5034 22.7698 47.7778 22.4678C48.0521 22.171 48.3643 21.9458 48.7048 21.7923C49.0454 21.6388 49.4143 21.562 49.8069 21.562H49.9015C50.1332 21.562 50.3177 21.7616 50.3177 22.0124V22.1147C50.3177 22.3604 50.1332 22.56 49.9015 22.56H49.8069C49.5373 22.56 49.2866 22.6112 49.0643 22.7136C48.8373 22.8159 48.6292 22.9694 48.4352 23.1792C48.2413 23.3891 48.0994 23.6143 48.0048 23.86C47.9102 24.1056 47.8629 24.3717 47.8629 24.6635C47.8629 24.9552 47.9102 25.2265 48.0048 25.467C48.0994 25.7127 48.2413 25.9378 48.4352 26.1477C48.6292 26.3575 48.8373 26.5162 49.0643 26.6134C49.2866 26.7158 49.5373 26.7669 49.8069 26.7669H49.9015C50.1332 26.7669 50.3177 26.9665 50.3177 27.2173ZM43.9939 26.941C43.8756 27.0536 43.7526 27.161 43.6155 27.2583C43.3837 27.4221 43.133 27.5449 42.8729 27.6319C42.608 27.7138 42.3337 27.7547 42.0499 27.7547C41.6573 27.7547 41.2884 27.683 40.9478 27.5295C40.6073 27.376 40.2998 27.1559 40.0208 26.854C39.7417 26.5571 39.5336 26.2245 39.3917 25.856C39.2545 25.4875 39.1836 25.0882 39.1836 24.6635C39.1836 24.2387 39.2545 23.8446 39.3917 23.4761C39.5336 23.1025 39.7417 22.7698 40.0208 22.4678C40.2951 22.171 40.6073 21.9458 40.9478 21.7923C41.2884 21.6388 41.6573 21.562 42.0499 21.562C42.3573 21.562 42.6553 21.6132 42.9438 21.7155C43.2229 21.8179 43.4925 21.9663 43.7479 22.171C43.8331 22.2376 43.9135 22.3092 43.9939 22.386V22.1147C43.9939 21.8691 44.1783 21.6643 44.4054 21.6643H44.5C44.7317 21.6643 44.9162 21.8691 44.9162 22.1147V27.2173C44.9162 27.463 44.7317 27.6626 44.5 27.6626H44.4054C44.1783 27.6626 43.9939 27.463 43.9939 27.2173V26.941ZM42.0499 22.56C41.7803 22.56 41.5296 22.6112 41.3073 22.7136C41.0803 22.8159 40.8674 22.9694 40.6782 23.1792C40.4843 23.3891 40.3377 23.6143 40.2478 23.86C40.1532 24.1056 40.1059 24.3717 40.1059 24.6635C40.1059 24.9552 40.1532 25.2265 40.2478 25.467C40.3377 25.7127 40.4843 25.9378 40.6782 26.1477C40.8674 26.3575 41.0803 26.5162 41.3073 26.6134C41.5296 26.7158 41.7803 26.7669 42.0499 26.7669C42.4425 26.7669 42.7925 26.6594 43.1046 26.4342C43.2702 26.3217 43.4074 26.1937 43.5209 26.0504C43.6391 25.9071 43.7337 25.7434 43.8094 25.5693C43.852 25.4772 43.9135 25.4056 43.9939 25.3646V24.6635C43.9939 24.3717 43.9466 24.1056 43.852 23.86C43.7574 23.6143 43.6155 23.3891 43.4216 23.1792C43.2276 22.9694 43.0195 22.8159 42.7925 22.7136C42.5654 22.6112 42.3195 22.56 42.0499 22.56Z" fill="#1F6C66"/>
<path d="M33.8283 25.3386L32.2485 22.1348V27.2169C32.2485 27.4625 32.064 27.6621 31.837 27.6621H31.7377C31.5106 27.6621 31.3262 27.4625 31.3262 27.2169V19.9289C31.3262 19.6781 31.5106 19.4785 31.7377 19.4785C31.9127 19.4785 32.0593 19.5911 32.1208 19.7549L34.1925 23.9618L36.2831 19.719C36.3919 19.499 36.6378 19.4171 36.8412 19.5348C36.9784 19.6167 37.0588 19.7702 37.0588 19.9289V27.2169C37.0588 27.4625 36.8743 27.6621 36.6473 27.6621H36.5527C36.3209 27.6621 36.1365 27.4625 36.1365 27.2169V22.1348L34.5567 25.3437C34.4479 25.5587 34.2019 25.6406 33.9985 25.528C33.9229 25.4819 33.8661 25.4154 33.8283 25.3386Z" fill="#1F6C66"/>
<path fill-rule="evenodd" clip-rule="evenodd" d="M11.8307 0C11.4334 0 11.1023 0.348026 11.1023 0.772815V28.2357C11.1023 28.6554 11.4334 29.0034 11.8307 29.0034C12.2327 29.0034 12.5638 28.6554 12.5638 28.2357V0.772815C12.5638 0.348026 12.2327 0 11.8307 0ZM27.198 17.8718C26.0818 17.964 25.0743 18.4809 24.327 19.2741C23.4993 20.1493 22.9884 21.3572 22.9884 22.6827V23.6142V26.4393V28.4199C22.9884 34.9146 17.97 40.2219 11.8307 40.2219C5.69601 40.2219 0.677626 34.9146 0.677626 28.4199V12.3547C0.625597 11.9351 0.933036 11.5614 1.33981 11.5614C1.74184 11.5614 2.04928 11.9351 1.99725 12.3547V28.4199C1.99725 34.1418 6.42442 38.8299 11.8307 38.8299C17.2416 38.8299 21.6688 34.1418 21.6688 28.4199V26.4393V23.5426V22.6827C21.6688 20.9733 22.331 19.4175 23.3952 18.2915C24.3838 17.2475 25.7176 16.5668 27.198 16.4746V16.4798C27.5575 16.4798 27.8555 16.792 27.8555 17.1758C27.8555 17.5596 27.5575 17.8718 27.198 17.8718ZM16.395 6.19271V7.58477V9.36581V28.4558C16.395 29.7813 15.8794 30.9892 15.0517 31.8644C14.224 32.7395 13.0841 33.282 11.8307 33.282C10.582 33.282 9.43735 32.7395 8.61435 31.8644C7.78662 30.9892 7.27107 29.7813 7.27107 28.4558V9.36581V7.58477V6.19271C7.27107 5.80886 6.97781 5.49667 6.61361 5.49667C6.24941 5.49667 5.95617 5.80886 5.95617 6.19271V28.4558C5.95617 30.1703 6.61835 31.721 7.68257 32.847C8.74679 33.978 10.2178 34.6741 11.8307 34.6741C13.4483 34.6741 14.9193 33.978 15.9835 32.847C17.0477 31.721 17.7099 30.1703 17.7099 28.4558V6.19271C17.7099 5.80886 17.4166 5.49667 17.0524 5.49667C16.6882 5.49667 16.395 5.80886 16.395 6.19271Z" fill="#BDA875"/>
</svg>
