<svg width="35" height="35" viewBox="0 0 35 35" fill="none" xmlns="http://www.w3.org/2000/svg">
<g clip-path="url(#clip0_272_1760)">
<path d="M35 30.1389C35 32.8242 32.8242 35 30.1389 35H4.86111C2.17681 35 0 32.8242 0 30.1389V4.86111C0 2.17583 2.17681 0 4.86111 0H30.1389C32.8242 0 35 2.17583 35 4.86111V30.1389Z" fill="#1976D2"/>
<path d="M29.1061 11.7064C29.1508 11.5596 29.1722 11.4235 29.1663 11.302C29.1518 10.95 28.9097 10.6943 28.34 10.6943H25.7947C25.152 10.6943 24.8555 11.0832 24.6825 11.4731C24.6825 11.4731 23.0958 14.7388 21.267 16.8923C20.674 17.5154 20.3726 17.4999 20.0518 17.4999C19.8797 17.4999 19.4451 17.2918 19.4451 16.7211V11.6802C19.4451 11.0054 19.2769 10.6943 18.7334 10.6943H14.2136C13.8179 10.6943 13.6118 11.0054 13.6118 11.3175C13.6118 11.966 14.4848 12.1216 14.584 13.9386V17.461C14.584 18.3166 14.4352 18.4721 14.1144 18.4721C13.2491 18.4721 11.5458 15.5554 10.4054 11.7327C10.1584 10.9802 9.91148 10.6943 9.26885 10.6943H6.69926C5.95746 10.6943 5.83398 11.0579 5.83398 11.4468C5.83398 12.1478 6.41732 15.9375 9.60135 20.295C11.9104 23.4548 14.9525 25.2777 17.6455 25.2777C19.2769 25.2777 19.4441 24.8625 19.4441 24.2141V21.3246C19.4451 20.5459 19.623 20.4166 20.1422 20.4166C20.5126 20.4166 21.268 20.6596 22.7263 22.361C24.4083 24.3229 24.7136 25.2777 25.678 25.2777H28.2233C28.8144 25.2777 29.1537 25.0298 29.1673 24.5485C29.1702 24.426 29.1527 24.2889 29.1129 24.1363C28.9243 23.5763 28.059 22.2074 26.9798 20.9027C26.3819 20.1803 25.7918 19.4648 25.5205 19.0759C25.3387 18.8221 25.2697 18.6432 25.2784 18.4721C25.2872 18.2923 25.3805 18.1211 25.5205 17.882C25.4952 17.882 28.7852 13.2629 29.1061 11.7064Z" fill="white"/>
</g>
<defs>
<clipPath id="clip0_272_1760">
<rect width="35" height="35" rx="8" fill="white"/>
</clipPath>
</defs>
</svg>
