<svg width="35" height="35" viewBox="0 0 35 35" fill="none" xmlns="http://www.w3.org/2000/svg">
<path d="M27.3549 0H7.64511C3.42283 0 0 3.42283 0 7.64511V27.3549C0 31.5772 3.42283 35 7.64511 35H27.3549C31.5772 35 35 31.5772 35 27.3549V7.64511C35 3.42283 31.5772 0 27.3549 0Z" fill="#FF0000"/>
<path d="M27.5343 12.6859C27.3057 11.8268 26.6298 11.1491 25.7697 10.9168C24.2146 10.5 17.975 10.5 17.975 10.5C17.975 10.5 11.7386 10.5 10.1803 10.9168C9.32344 11.1459 8.64746 11.8236 8.41578 12.6859C8 14.245 8 17.5 8 17.5C8 17.5 8 20.755 8.41578 22.3141C8.64429 23.1731 9.32027 23.8509 10.1803 24.0832C11.7386 24.5 17.975 24.5 17.975 24.5C17.975 24.5 24.2146 24.5 25.7697 24.0832C26.6266 23.8541 27.3026 23.1764 27.5343 22.3141C27.95 20.755 27.95 17.5 27.95 17.5C27.95 17.5 27.95 14.245 27.5343 12.6859Z" fill="white"/>
<path d="M15.9805 20.5004L21.1632 17.4999L15.9805 14.4995V20.5004Z" fill="#FF0000"/>
</svg>
